<?xml version="1.0" encoding="UTF-8"?>
<svg xmlns="http://www.w3.org/2000/svg" xmlns:xlink="http://www.w3.org/1999/xlink" version="1.1" id="Ebene_1" x="0px" y="0px" width="349.994px" height="103.707px" viewBox="-19.497 116.484 349.994 103.707" xml:space="preserve">
<defs>
	<filter id="Adobe_OpacityMaskFilter" filterUnits="userSpaceOnUse" x="-19.497" y="116.484" width="349.994" height="103.707">
		<feColorMatrix type="matrix" values="1 0 0 0 0  0 1 0 0 0  0 0 1 0 0  0 0 0 1 0"></feColorMatrix>
	</filter>
</defs>
<mask maskUnits="userSpaceOnUse" x="-19.497" y="116.484" width="349.994" height="103.707" id="mask0_18764_216405_2_">
	<path fill="#FFFFFF" filter="url(#Adobe_OpacityMaskFilter)" d="M330.489,116.484H-19.498v103.701h349.987V116.484z"></path>
</mask>
<g mask="url(#mask0_18764_216405_2_)">
	<defs>
		<filter id="Adobe_OpacityMaskFilter_1_" filterUnits="userSpaceOnUse" x="-19.497" y="116.484" width="349.994" height="103.707">
			<feColorMatrix type="matrix" values="1 0 0 0 0  0 1 0 0 0  0 0 1 0 0  0 0 0 1 0"></feColorMatrix>
		</filter>
	</defs>
	<mask maskUnits="userSpaceOnUse" x="-19.497" y="116.484" width="349.994" height="103.707" id="mask1_18764_216405_2_">
		<path fill="#FFFFFF" filter="url(#Adobe_OpacityMaskFilter_1_)" d="M330.491,116.484H-19.496v103.701h349.987V116.484z"></path>
	</mask>
	<g mask="url(#mask1_18764_216405_2_)">
		<path d="M317.526,220.186H-6.532c-7.13,0-12.965-5.834-12.965-12.965v-77.771c0.001-7.131,5.836-12.965,12.965-12.965H317.53    c7.131,0,12.965,5.834,12.965,12.965v77.777c0,7.129-5.834,12.965-12.965,12.965"></path>
		<path fill="#FFFFFF" d="M317.526,118.559c6.002,0,10.889,4.887,10.889,10.891v77.777c0,6.002-4.887,10.889-10.889,10.889H-6.532    c-6.003,0-10.89-4.887-10.89-10.889v-77.777c0-6.008,4.881-10.891,10.89-10.891H317.53H317.526z M317.526,116.484H-6.532    c-7.129,0-12.964,5.834-12.964,12.965v77.777c0,7.129,5.835,12.965,12.965,12.965h324.063c7.129,0,12.965-5.836,12.965-12.965    v-77.777C330.491,122.318,324.655,116.484,317.526,116.484z"></path>
	</g>
</g>
<g>
	<path fill="#FFFFFF" d="M64.854,166.154c0.032-2.429,0.677-4.808,1.876-6.92c1.199-2.114,2.911-3.888,4.98-5.158   c-1.314-1.877-3.048-3.421-5.063-4.512c-2.017-1.091-4.257-1.695-6.548-1.767c-4.886-0.513-9.623,2.924-12.112,2.924   c-2.538,0-6.37-2.873-10.498-2.788c-2.67,0.087-5.271,0.863-7.553,2.254c-2.28,1.392-4.161,3.349-5.461,5.683   c-5.626,9.742-1.429,24.06,3.959,31.934c2.697,3.854,5.848,8.162,9.973,8.01c4.035-0.165,5.542-2.572,10.413-2.572   c4.826,0,6.24,2.572,10.447,2.476c4.33-0.068,7.059-3.872,9.661-7.766c1.937-2.747,3.429-5.782,4.417-8.997   c-2.516-1.063-4.662-2.845-6.174-5.12C65.665,171.557,64.857,168.886,64.854,166.154z"></path>
	<path fill="#FFFFFF" d="M56.908,142.617c2.361-2.834,3.524-6.478,3.241-10.156c-3.606,0.378-6.939,2.104-9.332,4.827   c-1.169,1.333-2.066,2.882-2.637,4.56c-0.571,1.678-0.805,3.452-0.691,5.221c1.804,0.02,3.59-0.372,5.22-1.145   C54.343,145.154,55.777,144.022,56.908,142.617z"></path>
	<path fill="#FFFFFF" d="M113.275,186.443h-13.243l-3.18,9.39h-5.61l12.543-34.741h5.828l12.543,34.741h-5.705L113.275,186.443z    M101.404,182.11h10.497l-5.175-15.239h-0.145L101.404,182.11z"></path>
	<path fill="#FFFFFF" d="M149.244,183.17c0,7.873-4.214,12.929-10.57,12.929c-1.611,0.084-3.212-0.287-4.623-1.07   c-1.409-0.784-2.569-1.948-3.348-3.361h-0.119v12.547h-5.199v-33.709h5.031v4.213h0.097c0.813-1.405,1.993-2.564,3.413-3.354   c1.42-0.787,3.028-1.177,4.651-1.125C145.007,170.239,149.244,175.321,149.244,183.17z M143.899,183.17   c0-5.128-2.649-8.498-6.692-8.498c-3.974,0-6.646,3.441-6.646,8.498c0,5.105,2.673,8.521,6.646,8.521   C141.25,191.691,143.899,188.346,143.899,183.17L143.899,183.17z"></path>
	<path fill="#FFFFFF" d="M177.123,183.17c0,7.873-4.216,12.929-10.572,12.929c-1.61,0.084-3.213-0.287-4.623-1.07   c-1.409-0.784-2.569-1.948-3.348-3.361h-0.119v12.547h-5.199v-33.709h5.031v4.213h0.097c0.813-1.405,1.993-2.564,3.413-3.354   c1.421-0.787,3.027-1.177,4.65-1.125C172.885,170.239,177.123,175.321,177.123,183.17z M171.776,183.17   c0-5.128-2.649-8.498-6.692-8.498c-3.974,0-6.646,3.441-6.646,8.498c0,5.105,2.672,8.521,6.646,8.521   C169.127,191.691,171.776,188.346,171.776,183.17z"></path>
	<path fill="#FFFFFF" d="M195.549,186.154c0.386,3.446,3.733,5.708,8.307,5.708c4.382,0,7.534-2.262,7.534-5.368   c0-2.697-1.904-4.312-6.406-5.419l-4.502-1.085c-6.381-1.54-9.342-4.524-9.342-9.365c0-5.995,5.226-10.112,12.642-10.112   c7.343,0,12.375,4.117,12.545,10.112h-5.248c-0.314-3.468-3.18-5.561-7.369-5.561c-4.188,0-7.054,2.118-7.054,5.199   c0,2.456,1.83,3.9,6.309,5.008l3.828,0.939c7.127,1.688,10.087,4.55,10.087,9.632c0,6.499-5.174,10.57-13.409,10.57   c-7.706,0-12.906-3.976-13.243-10.26L195.549,186.154L195.549,186.154z"></path>
	<path fill="#FFFFFF" d="M228.104,164.513v5.994h4.815v4.117h-4.815v13.963c0,2.171,0.964,3.18,3.08,3.18   c0.571-0.01,1.144-0.05,1.709-0.119v4.094c-0.951,0.177-1.917,0.258-2.887,0.24c-5.129,0-7.128-1.927-7.128-6.84v-14.518h-3.682   v-4.117h3.682v-5.994H228.104z"></path>
	<path fill="#FFFFFF" d="M235.708,183.174c0-7.969,4.694-12.977,12.013-12.977c7.345,0,12.017,5.009,12.017,12.977   c0,7.993-4.647,12.978-12.017,12.978C240.355,196.151,235.708,191.167,235.708,183.174z M254.439,183.174   c0-5.465-2.506-8.694-6.719-8.694c-4.212,0-6.718,3.253-6.718,8.694c0,5.489,2.506,8.691,6.718,8.691   C251.934,191.865,254.439,188.663,254.439,183.174L254.439,183.174z"></path>
	<path fill="#FFFFFF" d="M264.023,170.505h4.96v4.311h0.12c0.335-1.347,1.123-2.536,2.231-3.37c1.11-0.833,2.473-1.259,3.859-1.206   c0.601-0.002,1.195,0.063,1.779,0.193v4.865c-0.755-0.232-1.545-0.339-2.336-0.314c-0.753-0.03-1.507,0.103-2.206,0.39   s-1.327,0.724-1.843,1.277c-0.515,0.554-0.904,1.212-1.14,1.93c-0.236,0.719-0.314,1.479-0.229,2.229v15.023h-5.198v-25.328   H264.023z"></path>
	<path fill="#FFFFFF" d="M300.952,188.398c-0.699,4.598-5.178,7.753-10.907,7.753c-7.368,0-11.941-4.935-11.941-12.857   c0-7.942,4.599-13.097,11.723-13.097c7.009,0,11.416,4.813,11.416,12.494v1.781h-17.891v0.314   c-0.082,0.932,0.034,1.871,0.343,2.755s0.801,1.69,1.444,2.37c0.646,0.679,1.428,1.212,2.294,1.564   c0.866,0.354,1.798,0.518,2.733,0.485c1.228,0.113,2.462-0.171,3.516-0.812c1.054-0.644,1.872-1.608,2.333-2.753L300.952,188.398   L300.952,188.398z M283.377,180.839h12.663c0.047-0.839-0.08-1.678-0.375-2.464c-0.292-0.786-0.744-1.505-1.328-2.107   c-0.581-0.604-1.284-1.082-2.06-1.4c-0.777-0.32-1.61-0.476-2.451-0.457c-0.847-0.005-1.686,0.158-2.468,0.479   c-0.785,0.32-1.497,0.793-2.096,1.392c-0.601,0.599-1.075,1.309-1.399,2.091C283.539,179.152,283.375,179.991,283.377,180.839   L283.377,180.839z"></path>
	<path fill="#FFFFFF" d="M104.66,151.557H94.524v-16.222h2.522v13.911h7.613V151.557z"></path>
	<path fill="#FFFFFF" d="M107.2,148.102c0-2.121,1.633-3.479,4.56-3.647l3.308-0.191v-1.06c0-1.294-0.849-2.121-2.503-2.121   c-1.652,0-2.289,0.51-2.564,1.356h-2.334c0.256-2.12,2.229-3.435,5.006-3.435s4.813,1.526,4.813,4.113v8.355h-2.332v-1.59h-0.19   c-0.397,0.61-0.946,1.109-1.593,1.447s-1.369,0.504-2.098,0.48c-0.514,0.053-1.033,0-1.524-0.161   c-0.491-0.159-0.943-0.42-1.327-0.766c-0.383-0.347-0.691-0.769-0.9-1.24c-0.21-0.473-0.319-0.983-0.319-1.5 M115.067,147.104   v-1.039l-2.99,0.191c-1.696,0.128-2.46,0.7-2.46,1.781s0.977,1.738,2.291,1.738c0.383,0.037,0.771-0.003,1.141-0.117   c0.367-0.114,0.709-0.302,1.004-0.551s0.535-0.555,0.711-0.899C114.938,147.865,115.04,147.49,115.067,147.104z"></path>
	<path fill="#FFFFFF" d="M120.65,145.429c0-3.859,1.993-6.362,5.089-6.362c0.762-0.039,1.52,0.141,2.185,0.516   c0.664,0.376,1.208,0.932,1.568,1.604h0.191v-6.658h2.418v16.965h-2.418v-1.932c-0.387,0.671-0.947,1.223-1.624,1.596   s-1.442,0.557-2.214,0.525c-3.117,0-5.09-2.459-5.09-6.361 M123.258,145.322c0,2.608,1.23,4.242,3.266,4.242s3.16-1.549,3.16-4.114   s-1.272-4.241-3.309-4.241c-2.035,0-3.266,1.568-3.266,4.241"></path>
	<path fill="#FFFFFF" d="M146.415,148.242c-0.325,1.119-1.037,2.087-2.006,2.735c-0.97,0.647-2.136,0.933-3.295,0.807   c-3.521,0-5.661-2.396-5.661-6.362c0-3.965,2.121-6.36,5.64-6.36c3.521,0,5.556,2.333,5.556,6.192v0.847h-8.736v0.129   c-0.035,0.449,0.023,0.9,0.172,1.325s0.385,0.813,0.69,1.144c0.308,0.328,0.68,0.59,1.094,0.769c0.414,0.177,0.86,0.266,1.31,0.262   c0.578,0.067,1.162-0.036,1.68-0.3c0.517-0.265,0.944-0.676,1.226-1.186L146.415,148.242L146.415,148.242z M137.934,144.299h6.171   c0.026-0.409-0.032-0.819-0.173-1.206c-0.141-0.384-0.357-0.737-0.641-1.032c-0.283-0.296-0.625-0.532-1.003-0.691   c-0.378-0.157-0.785-0.236-1.195-0.229c-0.417-0.009-0.833,0.067-1.222,0.222c-0.389,0.155-0.741,0.388-1.038,0.683   s-0.532,0.646-0.69,1.033c-0.158,0.388-0.235,0.804-0.23,1.222"></path>
	<path fill="#FFFFFF" d="M149.805,139.279h2.332v1.93h0.17c0.313-0.688,0.833-1.261,1.485-1.642c0.654-0.38,1.409-0.547,2.162-0.479   c0.595-0.049,1.193,0.038,1.75,0.254c0.558,0.216,1.058,0.555,1.466,0.99c0.407,0.437,0.712,0.96,0.889,1.529   c0.177,0.57,0.224,1.174,0.137,1.765v7.93h-2.418v-7.315c0-1.973-0.848-2.948-2.63-2.948c-0.404-0.02-0.809,0.047-1.184,0.198   c-0.377,0.149-0.716,0.382-0.993,0.675c-0.278,0.295-0.489,0.645-0.619,1.029c-0.129,0.383-0.174,0.792-0.13,1.194v7.167h-2.417   V139.279z"></path>
	<path fill="#FFFFFF" d="M170.271,135.692c-0.023-0.314,0.051-0.628,0.21-0.899c0.159-0.271,0.396-0.489,0.682-0.624   c0.282-0.135,0.601-0.182,0.913-0.134c0.312,0.048,0.601,0.188,0.83,0.403c0.231,0.216,0.391,0.493,0.462,0.802   c0.068,0.307,0.044,0.628-0.069,0.921c-0.114,0.292-0.315,0.544-0.576,0.721c-0.26,0.179-0.564,0.273-0.881,0.273   c-0.201,0.013-0.4-0.018-0.588-0.086c-0.19-0.067-0.362-0.173-0.51-0.31c-0.146-0.138-0.264-0.303-0.344-0.486   C170.314,136.091,170.272,135.894,170.271,135.692z M170.631,139.276h2.396v12.234h-2.396V139.276z"></path>
	<path fill="#FFFFFF" d="M176.923,139.278h2.333v2.12h0.169c0.278-0.666,0.756-1.227,1.368-1.608   c0.611-0.379,1.326-0.561,2.046-0.512c0.714-0.049,1.423,0.133,2.029,0.513c0.605,0.381,1.076,0.943,1.343,1.607h0.19   c0.353-0.674,0.893-1.232,1.555-1.609c0.66-0.375,1.417-0.553,2.178-0.511c0.533-0.045,1.072,0.029,1.575,0.219   c0.501,0.189,0.954,0.487,1.328,0.872c0.373,0.385,0.657,0.85,0.83,1.356c0.172,0.508,0.229,1.047,0.168,1.58v8.482h-2.417v-8.037   c0-1.652-0.785-2.46-2.376-2.46c-0.338-0.012-0.679,0.047-0.994,0.173c-0.316,0.124-0.605,0.314-0.846,0.555   c-0.241,0.24-0.429,0.526-0.555,0.845c-0.124,0.316-0.183,0.654-0.17,0.995v7.697h-2.376v-8.037c0.002-0.301-0.06-0.6-0.181-0.874   c-0.121-0.276-0.301-0.521-0.526-0.724c-0.225-0.2-0.489-0.35-0.778-0.44c-0.287-0.09-0.591-0.119-0.888-0.082   c-0.354,0.008-0.703,0.087-1.025,0.232c-0.322,0.144-0.612,0.353-0.854,0.611s-0.428,0.563-0.55,0.896   c-0.121,0.332-0.175,0.685-0.156,1.037v7.486h-2.418v-12.383H176.923z"></path>
</g>
</svg>
