<?xml version="1.0" encoding="UTF-8"?>
<svg xmlns="http://www.w3.org/2000/svg" width="304" height="130" viewBox="0 0 304 130" fill="none">
  <g clip-path="url(#clip0_455_284)">
    <path d="M304 0H0V130H304V0Z" fill="white"></path>
    <path d="M79.3654 37.5002V27.2365H81.3008C82.1345 27.2365 82.8614 27.3257 83.4818 27.5042C84.1021 27.6827 84.6181 27.9653 85.0301 28.3521C85.4419 28.7388 85.7471 29.2421 85.9456 29.8618C86.1441 30.4817 86.2433 31.2328 86.2433 32.1155C86.2433 33.0576 86.1243 33.8682 85.8861 34.5475C85.6479 35.2268 85.3105 35.7846 84.8737 36.221C84.437 36.6573 83.9036 36.9796 83.2734 37.1878C82.6431 37.3961 81.9359 37.5002 81.1519 37.5002H79.3654ZM80.6606 28.2628V36.4292H81.1519C81.7474 36.4292 82.2735 36.3523 82.73 36.1986C83.1865 36.045 83.5735 35.797 83.8912 35.4548C84.2088 35.1127 84.4495 34.6665 84.6133 34.1161C84.777 33.5657 84.8588 32.8988 84.8588 32.1155C84.8588 31.3916 84.7794 30.7841 84.6206 30.2932C84.4619 29.8023 84.2311 29.4057 83.9284 29.1032C83.6257 28.8008 83.2535 28.5851 82.8119 28.4562C82.3702 28.3273 81.8665 28.2628 81.3008 28.2628H80.6606ZM89.0719 37.5002H87.8661V30.3602H89.0719V37.5002ZM88.4764 28.6347C88.2284 28.6347 88.0298 28.5553 87.881 28.3967C87.7321 28.2381 87.6576 28.0298 87.6576 27.772C87.6576 27.5241 87.7321 27.3207 87.881 27.1621C88.0298 27.0035 88.2284 26.9241 88.4764 26.9241C88.7146 26.9241 88.9082 27.0035 89.057 27.1621C89.2059 27.3207 89.2803 27.5241 89.2803 27.772C89.2803 28.0298 89.2059 28.2381 89.057 28.3967C88.9082 28.5553 88.7146 28.6347 88.4764 28.6347ZM95.5032 32.77C95.5032 33.0773 95.4933 33.3426 95.4734 33.5657C95.4536 33.7888 95.4338 33.9847 95.4139 34.1533H91.7665C91.8062 34.9962 91.9873 35.6161 92.31 36.0127C92.6325 36.4093 93.0965 36.6077 93.7019 36.6077C93.9103 36.6077 94.0988 36.583 94.2676 36.5333C94.4363 36.4837 94.5827 36.4242 94.7068 36.3548C94.8308 36.2855 94.935 36.216 95.0194 36.1466C95.1038 36.0772 95.1658 36.0226 95.2055 35.983L95.6521 36.8308C95.6024 36.8805 95.528 36.9523 95.4288 37.0465C95.3296 37.1407 95.1956 37.235 95.0268 37.3292C94.8581 37.4233 94.6496 37.5052 94.4016 37.5746C94.1535 37.644 93.8606 37.6787 93.5232 37.6787C93.0766 37.6787 92.6721 37.6043 92.31 37.4556C91.9477 37.3068 91.64 37.0762 91.387 36.7638C91.1339 36.4515 90.9378 36.0548 90.7988 35.5738C90.6599 35.093 90.5904 34.5153 90.5904 33.841C90.5904 33.2063 90.6624 32.6583 90.8063 32.1972C90.9502 31.7361 91.1463 31.3568 91.3943 31.0593C91.6424 30.7618 91.9303 30.5412 92.2578 30.3973C92.5853 30.2536 92.9376 30.1817 93.3148 30.1817C93.9996 30.1817 94.5355 30.3973 94.9226 30.8287C95.3097 31.2601 95.5032 31.9072 95.5032 32.77ZM93.2404 31.1635C92.8136 31.1635 92.4712 31.342 92.2131 31.699C91.955 32.056 91.8062 32.5716 91.7665 33.246H94.3718C94.3817 33.1963 94.3892 33.1245 94.3942 33.0302C94.3991 32.9361 94.4016 32.8345 94.4016 32.7253C94.4016 32.2295 94.3024 31.8452 94.1038 31.5725C93.9053 31.2998 93.6175 31.1635 93.2404 31.1635ZM105.909 29.8545C105.909 30.2115 105.865 30.5238 105.775 30.7916C105.686 31.0593 105.564 31.2898 105.411 31.4832C105.257 31.6766 105.078 31.8328 104.875 31.9518C104.671 32.0708 104.46 32.1601 104.242 32.2196V32.2493C104.51 32.299 104.761 32.3931 104.994 32.532C105.227 32.6708 105.431 32.8443 105.604 33.0526C105.778 33.2608 105.917 33.5062 106.021 33.7888C106.125 34.0716 106.177 34.3815 106.177 34.7186C106.177 35.1252 106.108 35.4971 105.969 35.8342C105.83 36.1713 105.614 36.464 105.321 36.7118C105.029 36.9597 104.659 37.1531 104.212 37.292C103.766 37.4308 103.235 37.5002 102.619 37.5002H100.52V27.2365H102.5C103.106 27.2365 103.624 27.2985 104.056 27.4223C104.488 27.5463 104.843 27.7223 105.12 27.9505C105.398 28.1786 105.599 28.4537 105.723 28.776C105.847 29.0983 105.909 29.4578 105.909 29.8545ZM104.599 29.8991C104.599 29.4231 104.431 29.0313 104.093 28.724C103.756 28.4166 103.225 28.2628 102.5 28.2628H101.815V31.8031H102.485C103.18 31.8031 103.706 31.6345 104.063 31.2973C104.421 30.9602 104.599 30.4941 104.599 29.8991ZM104.793 34.6293C104.793 34.074 104.612 33.6352 104.25 33.3128C103.887 32.9906 103.369 32.8295 102.694 32.8295H101.815V36.4292H102.619C103.384 36.4292 103.937 36.278 104.279 35.9755C104.622 35.6731 104.793 35.2243 104.793 34.6293ZM112.356 32.77C112.356 33.0773 112.346 33.3426 112.326 33.5657C112.306 33.7888 112.286 33.9847 112.266 34.1533H108.619C108.659 34.9962 108.84 35.6161 109.162 36.0127C109.485 36.4093 109.949 36.6077 110.554 36.6077C110.763 36.6077 110.951 36.583 111.12 36.5333C111.289 36.4837 111.435 36.4242 111.559 36.3548C111.683 36.2855 111.787 36.216 111.872 36.1466C111.956 36.0772 112.018 36.0226 112.058 35.983L112.504 36.8308C112.455 36.8805 112.38 36.9523 112.281 37.0465C112.182 37.1407 112.048 37.235 111.879 37.3292C111.71 37.4233 111.502 37.5052 111.254 37.5746C111.006 37.644 110.713 37.6787 110.376 37.6787C109.929 37.6787 109.524 37.6043 109.162 37.4556C108.8 37.3068 108.492 37.0762 108.239 36.7638C107.986 36.4515 107.79 36.0548 107.651 35.5738C107.512 35.093 107.443 34.5153 107.443 33.841C107.443 33.2063 107.515 32.6583 107.659 32.1972C107.803 31.7361 107.999 31.3568 108.247 31.0593C108.495 30.7618 108.783 30.5412 109.11 30.3973C109.438 30.2536 109.79 30.1817 110.167 30.1817C110.852 30.1817 111.388 30.3973 111.775 30.8287C112.162 31.2601 112.356 31.9072 112.356 32.77ZM110.093 31.1635C109.666 31.1635 109.324 31.342 109.065 31.699C108.807 32.056 108.659 32.5716 108.619 33.246H111.224C111.234 33.1963 111.242 33.1245 111.247 33.0302C111.251 32.9361 111.254 32.8345 111.254 32.7253C111.254 32.2295 111.155 31.8452 110.956 31.5725C110.758 31.2998 110.47 31.1635 110.093 31.1635ZM113.547 35.6855C113.547 35.269 113.626 34.9218 113.785 34.6442C113.944 34.3666 114.157 34.141 114.425 33.9673C114.693 33.7938 115.008 33.6698 115.37 33.5955C115.732 33.5211 116.117 33.484 116.524 33.484H116.896V32.7997C116.896 32.1948 116.789 31.7783 116.576 31.5502C116.363 31.3221 116.063 31.2081 115.675 31.2081C115.318 31.2081 115.02 31.285 114.782 31.4386C114.544 31.5923 114.355 31.7287 114.216 31.8477L113.71 31.0445C113.79 30.9651 113.891 30.8758 114.016 30.7767C114.14 30.6776 114.291 30.5833 114.47 30.4941C114.648 30.4048 114.852 30.3305 115.08 30.271C115.308 30.2115 115.566 30.1817 115.854 30.1817C116.589 30.1817 117.144 30.385 117.521 30.7916C117.899 31.1982 118.087 31.8527 118.087 32.7551V36.0127C118.087 36.3201 118.097 36.6201 118.117 36.9126C118.137 37.2052 118.157 37.4011 118.176 37.5002H117.03L116.986 36.7118H116.956C116.916 36.8011 116.857 36.9027 116.777 37.0167C116.698 37.1308 116.598 37.235 116.479 37.3292C116.36 37.4233 116.216 37.5052 116.048 37.5746C115.879 37.644 115.68 37.6787 115.452 37.6787C115.184 37.6787 114.934 37.6291 114.7 37.53C114.467 37.4308 114.264 37.292 114.09 37.1135C113.916 36.935 113.782 36.7242 113.688 36.4812C113.594 36.2383 113.547 35.9731 113.547 35.6855ZM115.705 36.6523C115.874 36.6523 116.023 36.6276 116.152 36.578C116.281 36.5283 116.393 36.4688 116.487 36.3995C116.581 36.3301 116.66 36.2532 116.725 36.1688C116.789 36.0846 116.847 36.0127 116.896 35.9532V34.3765L116.509 34.3913C115.934 34.4112 115.497 34.5103 115.199 34.6888C114.901 34.8673 114.752 35.155 114.752 35.5516C114.752 35.9185 114.837 36.1937 115.006 36.3771C115.174 36.5606 115.407 36.6523 115.705 36.6523ZM124.906 37.5002H123.804V36.697H123.774C123.744 36.7565 123.68 36.8432 123.581 36.9572C123.481 37.0713 123.355 37.1803 123.201 37.2845C123.047 37.3886 122.861 37.4803 122.643 37.5597C122.424 37.6391 122.181 37.6787 121.913 37.6787C121.596 37.6787 121.31 37.6316 121.057 37.5375C120.804 37.4432 120.588 37.292 120.41 37.0837C120.231 36.8755 120.094 36.6052 120 36.273C119.906 35.9408 119.859 35.5317 119.859 35.0458V30.3602H121.065V34.9566C121.065 35.5516 121.161 35.9755 121.355 36.2285C121.549 36.4812 121.849 36.6077 122.256 36.6077C122.603 36.6077 122.896 36.521 123.134 36.3473C123.372 36.1738 123.561 36.0028 123.7 35.8342V30.3602H124.906V37.5002ZM129.759 31.342H128.3V37.5002H127.094V31.342H126.23V30.5387L127.094 30.3751V28.9471C127.094 28.5603 127.148 28.2281 127.258 27.9505C127.367 27.6728 127.511 27.4447 127.689 27.2662C127.868 27.0877 128.077 26.9588 128.315 26.8795C128.553 26.8001 128.806 26.7605 129.074 26.7605C129.332 26.7605 129.55 26.7952 129.729 26.8646C129.908 26.934 130.027 26.9886 130.086 27.0282L129.833 28.0248C129.774 27.9852 129.689 27.943 129.58 27.8983C129.471 27.8537 129.337 27.8315 129.178 27.8315C128.89 27.8315 128.672 27.9207 128.523 28.0992C128.374 28.2777 128.3 28.605 128.3 29.081V30.3602H129.908L129.759 31.342ZM134.002 31.342H132.438V35.2987C132.438 35.8045 132.503 36.1491 132.632 36.3325C132.761 36.516 132.979 36.6077 133.287 36.6077C133.466 36.6077 133.62 36.583 133.749 36.5333C133.878 36.4837 133.972 36.4391 134.031 36.3995L134.195 37.3663C134.145 37.406 134.026 37.468 133.838 37.5523C133.649 37.6366 133.396 37.6787 133.079 37.6787C132.463 37.6787 132.002 37.5077 131.694 37.1655C131.386 36.8235 131.233 36.2557 131.233 35.4623V31.342H130.369V30.5387L131.233 30.3602L131.367 28.367H132.438V30.3602H134.15L134.002 31.342ZM138.512 31.4163C138.483 31.3965 138.418 31.3717 138.319 31.342C138.22 31.3122 138.086 31.2973 137.917 31.2973C137.54 31.2973 137.245 31.399 137.031 31.6022C136.818 31.8056 136.666 32.0262 136.577 32.2642V37.5002H135.371V30.3602H136.473V31.3271H136.503C136.552 31.1882 136.617 31.0518 136.696 30.918C136.776 30.7841 136.875 30.6651 136.994 30.561C137.113 30.4568 137.254 30.3751 137.418 30.3156C137.582 30.2561 137.778 30.2263 138.006 30.2263C138.175 30.2263 138.312 30.2412 138.416 30.271C138.52 30.3007 138.602 30.3255 138.661 30.3453L138.512 31.4163ZM139.212 35.6855C139.212 35.269 139.292 34.9218 139.45 34.6442C139.609 34.3666 139.823 34.141 140.091 33.9673C140.358 33.7938 140.674 33.6698 141.036 33.5955C141.398 33.5211 141.783 33.484 142.19 33.484H142.562V32.7997C142.562 32.1948 142.455 31.7783 142.242 31.5502C142.028 31.3221 141.728 31.2081 141.341 31.2081C140.984 31.2081 140.686 31.285 140.448 31.4386C140.21 31.5923 140.021 31.7287 139.882 31.8477L139.376 31.0445C139.455 30.9651 139.557 30.8758 139.681 30.7767C139.805 30.6776 139.957 30.5833 140.135 30.4941C140.314 30.4048 140.517 30.3305 140.746 30.271C140.974 30.2115 141.232 30.1817 141.52 30.1817C142.254 30.1817 142.81 30.385 143.187 30.7916C143.564 31.1982 143.753 31.8527 143.753 32.7551V36.0127C143.753 36.3201 143.763 36.6201 143.783 36.9126C143.802 37.2052 143.822 37.4011 143.842 37.5002H142.696L142.651 36.7118H142.621C142.582 36.8011 142.522 36.9027 142.443 37.0167C142.363 37.1308 142.264 37.235 142.145 37.3292C142.026 37.4233 141.882 37.5052 141.713 37.5746C141.544 37.644 141.346 37.6787 141.118 37.6787C140.85 37.6787 140.599 37.6291 140.366 37.53C140.133 37.4308 139.929 37.292 139.756 37.1135C139.582 36.935 139.448 36.7242 139.354 36.4812C139.259 36.2383 139.212 35.9731 139.212 35.6855ZM141.371 36.6523C141.54 36.6523 141.688 36.6276 141.817 36.578C141.946 36.5283 142.058 36.4688 142.152 36.3995C142.247 36.3301 142.326 36.2532 142.391 36.1688C142.455 36.0846 142.512 36.0127 142.562 35.9532V34.3765L142.175 34.3913C141.599 34.4112 141.162 34.5103 140.865 34.6888C140.567 34.8673 140.418 35.155 140.418 35.5516C140.418 35.9185 140.502 36.1937 140.671 36.3771C140.84 36.5606 141.073 36.6523 141.371 36.6523ZM150.69 31.2973H149.797C150.025 31.6742 150.139 32.1006 150.139 32.5766C150.139 32.9535 150.077 33.2931 149.953 33.5955C149.829 33.898 149.656 34.1533 149.432 34.3616C149.209 34.5698 148.946 34.7285 148.643 34.8376C148.341 34.9467 148.016 35.0012 147.668 35.0012C147.599 35.0012 147.534 35.0012 147.475 35.0012C147.415 35.0012 147.35 34.9962 147.281 34.9863C147.162 35.036 147.038 35.1152 146.909 35.2243C146.78 35.3335 146.715 35.4772 146.715 35.6557C146.715 35.8045 146.772 35.926 146.887 36.0201C147.001 36.1143 147.187 36.1615 147.445 36.1615H148.353C148.69 36.1615 149.003 36.1962 149.291 36.2656C149.579 36.335 149.829 36.4466 150.043 36.6002C150.256 36.754 150.422 36.9498 150.541 37.1878C150.66 37.4258 150.72 37.7135 150.72 38.0506C150.72 38.4373 150.638 38.7893 150.474 39.1067C150.311 39.4241 150.08 39.6967 149.782 39.9248C149.484 40.153 149.122 40.3315 148.695 40.4603C148.269 40.5892 147.792 40.6537 147.266 40.6537C146.502 40.6537 145.921 40.4876 145.524 40.1555C145.127 39.8232 144.929 39.3447 144.929 38.72C144.929 38.4522 144.976 38.2217 145.07 38.0283C145.165 37.835 145.276 37.6663 145.405 37.5226C145.534 37.3787 145.666 37.2647 145.8 37.1803C145.934 37.0961 146.04 37.0292 146.12 36.9796V36.9498C145.812 36.7217 145.658 36.3896 145.658 35.9532C145.658 35.7648 145.696 35.6012 145.77 35.4623C145.844 35.3235 145.929 35.2095 146.023 35.1202C146.117 35.031 146.212 34.9591 146.306 34.9045C146.4 34.85 146.472 34.8128 146.522 34.793V34.7632C146.155 34.5946 145.859 34.3293 145.636 33.9673C145.413 33.6055 145.301 33.1418 145.301 32.5766C145.301 32.18 145.366 31.8303 145.495 31.528C145.624 31.2255 145.797 30.9751 146.016 30.7767C146.234 30.5783 146.49 30.4296 146.782 30.3305C147.075 30.2313 147.39 30.1817 147.728 30.1817C148.065 30.1817 148.383 30.2412 148.68 30.3602H150.854L150.69 31.2973ZM147.37 37.2771C147.162 37.2771 146.978 37.2622 146.82 37.2325C146.73 37.2821 146.643 37.3416 146.559 37.411C146.475 37.4803 146.398 37.5647 146.328 37.6638C146.259 37.763 146.202 37.8795 146.157 38.0135C146.112 38.1473 146.09 38.3035 146.09 38.482C146.09 39.2456 146.512 39.6273 147.355 39.6273C148.08 39.6273 148.616 39.4861 148.963 39.2035C149.311 38.9208 149.484 38.596 149.484 38.2291C149.484 37.882 149.375 37.6366 149.157 37.4927C148.939 37.349 148.646 37.2771 148.278 37.2771H147.37ZM148.963 32.5766C148.963 32.061 148.842 31.694 148.599 31.4758C148.355 31.2577 148.07 31.1486 147.743 31.1486C147.395 31.1486 147.097 31.2577 146.849 31.4758C146.601 31.694 146.477 32.061 146.477 32.5766C146.477 33.0922 146.601 33.4592 146.849 33.6773C147.097 33.8955 147.385 34.0046 147.713 34.0046C148.06 34.0046 148.355 33.8955 148.599 33.6773C148.842 33.4592 148.963 33.0922 148.963 32.5766ZM155.112 31.342H153.549V35.2987C153.549 35.8045 153.613 36.1491 153.742 36.3325C153.871 36.516 154.09 36.6077 154.397 36.6077C154.576 36.6077 154.73 36.583 154.859 36.5333C154.988 36.4837 155.082 36.4391 155.142 36.3995L155.305 37.3663C155.256 37.406 155.137 37.468 154.948 37.5523C154.759 37.6366 154.506 37.6787 154.189 37.6787C153.573 37.6787 153.112 37.5077 152.804 37.1655C152.497 36.8235 152.343 36.2557 152.343 35.4623V31.342H151.479V30.5387L152.343 30.3602L152.477 28.367H153.549V30.3602H155.261L155.112 31.342ZM160.962 32.77C160.962 33.0773 160.953 33.3426 160.933 33.5657C160.913 33.7888 160.893 33.9847 160.873 34.1533H157.226C157.265 34.9962 157.447 35.6161 157.769 36.0127C158.092 36.4093 158.556 36.6077 159.161 36.6077C159.369 36.6077 159.558 36.583 159.727 36.5333C159.896 36.4837 160.042 36.4242 160.166 36.3548C160.29 36.2855 160.394 36.216 160.479 36.1466C160.563 36.0772 160.625 36.0226 160.665 35.983L161.111 36.8308C161.062 36.8805 160.987 36.9523 160.888 37.0465C160.789 37.1407 160.655 37.235 160.486 37.3292C160.317 37.4233 160.109 37.5052 159.861 37.5746C159.613 37.644 159.32 37.6787 158.982 37.6787C158.536 37.6787 158.131 37.6043 157.769 37.4556C157.407 37.3068 157.099 37.0762 156.846 36.7638C156.593 36.4515 156.397 36.0548 156.258 35.5738C156.119 35.093 156.05 34.5153 156.05 33.841C156.05 33.2063 156.122 32.6583 156.266 32.1972C156.409 31.7361 156.605 31.3568 156.854 31.0593C157.102 30.7618 157.389 30.5412 157.717 30.3973C158.045 30.2536 158.397 30.1817 158.774 30.1817C159.459 30.1817 159.995 30.3973 160.382 30.8287C160.769 31.2601 160.962 31.9072 160.962 32.77ZM158.7 31.1635C158.273 31.1635 157.93 31.342 157.672 31.699C157.414 32.056 157.265 32.5716 157.226 33.246H159.831C159.841 33.1963 159.848 33.1245 159.853 33.0302C159.858 32.9361 159.861 32.8345 159.861 32.7253C159.861 32.2295 159.762 31.8452 159.563 31.5725C159.364 31.2998 159.077 31.1635 158.7 31.1635ZM165.399 34.0343C165.399 33.3105 165.493 32.7055 165.682 32.2196C165.87 31.7337 166.113 31.342 166.411 31.0445C166.709 30.747 167.046 30.5362 167.423 30.4122C167.801 30.2883 168.178 30.2263 168.555 30.2263C168.783 30.2263 168.982 30.2437 169.15 30.2785C169.319 30.3131 169.458 30.3552 169.567 30.4048V26.9836L170.773 26.8497V37.5002H169.671V36.7416H169.642C169.612 36.8011 169.557 36.8828 169.478 36.987C169.398 37.0911 169.289 37.1952 169.15 37.2993C169.011 37.4035 168.838 37.4927 168.629 37.5672C168.421 37.6416 168.178 37.6787 167.9 37.6787C167.562 37.6787 167.242 37.6118 166.94 37.4778C166.637 37.344 166.371 37.1308 166.143 36.8382C165.915 36.5457 165.734 36.1688 165.6 35.7077C165.466 35.2466 165.399 34.6888 165.399 34.0343ZM168.227 36.6077C168.416 36.6077 168.585 36.583 168.734 36.5333C168.882 36.4837 169.011 36.4217 169.121 36.3473C169.23 36.273 169.322 36.1962 169.396 36.1168C169.471 36.0375 169.528 35.9681 169.567 35.9086V31.5056C169.458 31.4362 169.332 31.3767 169.188 31.3271C169.044 31.2775 168.863 31.2527 168.644 31.2527C168.366 31.2527 168.106 31.2998 167.863 31.394C167.62 31.4882 167.409 31.6445 167.23 31.8626C167.051 32.0807 166.91 32.3633 166.806 32.7105C166.702 33.0576 166.649 33.484 166.649 33.9897C166.649 34.4856 166.692 34.8996 166.776 35.2317C166.86 35.564 166.977 35.8317 167.126 36.035C167.275 36.2383 167.443 36.3846 167.632 36.4738C167.82 36.5631 168.019 36.6077 168.227 36.6077ZM177.204 32.77C177.204 33.0773 177.195 33.3426 177.175 33.5657C177.155 33.7888 177.135 33.9847 177.115 34.1533H173.468C173.507 34.9962 173.689 35.6161 174.011 36.0127C174.334 36.4093 174.798 36.6077 175.403 36.6077C175.611 36.6077 175.8 36.583 175.969 36.5333C176.138 36.4837 176.284 36.4242 176.408 36.3548C176.532 36.2855 176.636 36.216 176.721 36.1466C176.805 36.0772 176.867 36.0226 176.907 35.983L177.353 36.8308C177.304 36.8805 177.229 36.9523 177.13 37.0465C177.031 37.1407 176.897 37.235 176.728 37.3292C176.559 37.4233 176.351 37.5052 176.103 37.5746C175.855 37.644 175.562 37.6787 175.224 37.6787C174.778 37.6787 174.373 37.6043 174.011 37.4556C173.649 37.3068 173.341 37.0762 173.088 36.7638C172.835 36.4515 172.639 36.0548 172.5 35.5738C172.361 35.093 172.292 34.5153 172.292 33.841C172.292 33.2063 172.364 32.6583 172.508 32.1972C172.651 31.7361 172.847 31.3568 173.096 31.0593C173.344 30.7618 173.631 30.5412 173.959 30.3973C174.287 30.2536 174.639 30.1817 175.016 30.1817C175.701 30.1817 176.237 30.3973 176.624 30.8287C177.011 31.2601 177.204 31.9072 177.204 32.77ZM174.942 31.1635C174.515 31.1635 174.172 31.342 173.914 31.699C173.656 32.056 173.507 32.5716 173.468 33.246H176.073C176.083 33.1963 176.09 33.1245 176.095 33.0302C176.1 32.9361 176.103 32.8345 176.103 32.7253C176.103 32.2295 176.004 31.8452 175.805 31.5725C175.606 31.2998 175.319 31.1635 174.942 31.1635ZM181.953 31.4163C181.924 31.3965 181.859 31.3717 181.76 31.342C181.661 31.3122 181.527 31.2973 181.358 31.2973C180.981 31.2973 180.686 31.399 180.472 31.6022C180.259 31.8056 180.107 32.0262 180.018 32.2642V37.5002H178.812V30.3602H179.914V31.3271H179.944C179.993 31.1882 180.058 31.0518 180.137 30.918C180.217 30.7841 180.316 30.6651 180.435 30.561C180.554 30.4568 180.695 30.3751 180.859 30.3156C181.023 30.2561 181.219 30.2263 181.447 30.2263C181.616 30.2263 181.753 30.2412 181.857 30.271C181.961 30.3007 182.043 30.3255 182.102 30.3453L181.953 31.4163ZM191.6 29.8545C191.6 30.2115 191.556 30.5238 191.466 30.7916C191.377 31.0593 191.255 31.2898 191.102 31.4832C190.948 31.6766 190.769 31.8328 190.566 31.9518C190.362 32.0708 190.151 32.1601 189.933 32.2196V32.2493C190.201 32.299 190.452 32.3931 190.685 32.532C190.918 32.6708 191.121 32.8443 191.295 33.0526C191.469 33.2608 191.608 33.5062 191.712 33.7888C191.816 34.0716 191.868 34.3815 191.868 34.7186C191.868 35.1252 191.799 35.4971 191.66 35.8342C191.521 36.1713 191.305 36.464 191.012 36.7118C190.72 36.9597 190.35 37.1531 189.903 37.292C189.457 37.4308 188.926 37.5002 188.31 37.5002H186.211V27.2365H188.191C188.797 27.2365 189.315 27.2985 189.747 27.4223C190.179 27.5463 190.533 27.7223 190.811 27.9505C191.089 28.1786 191.29 28.4537 191.414 28.776C191.538 29.0983 191.6 29.4578 191.6 29.8545ZM190.29 29.8991C190.29 29.4231 190.122 29.0313 189.784 28.724C189.447 28.4166 188.916 28.2628 188.191 28.2628H187.506V31.8031H188.176C188.871 31.8031 189.397 31.6345 189.754 31.2973C190.112 30.9602 190.29 30.4941 190.29 29.8991ZM190.484 34.6293C190.484 34.074 190.303 33.6352 189.94 33.3128C189.578 32.9906 189.06 32.8295 188.385 32.8295H187.506V36.4292H188.31C189.075 36.4292 189.628 36.278 189.97 35.9755C190.313 35.6731 190.484 35.2243 190.484 34.6293ZM198.463 37.5002H197.362V36.697H197.332C197.302 36.7565 197.238 36.8432 197.138 36.9572C197.039 37.0713 196.913 37.1803 196.759 37.2845C196.605 37.3886 196.419 37.4803 196.201 37.5597C195.982 37.6391 195.739 37.6787 195.471 37.6787C195.153 37.6787 194.868 37.6316 194.615 37.5375C194.362 37.4432 194.146 37.292 193.967 37.0837C193.789 36.8755 193.652 36.6052 193.558 36.273C193.464 35.9408 193.417 35.5317 193.417 35.0458V30.3602H194.622V34.9566C194.622 35.5516 194.719 35.9755 194.913 36.2285C195.106 36.4812 195.406 36.6077 195.813 36.6077C196.161 36.6077 196.454 36.521 196.692 36.3473C196.93 36.1738 197.119 36.0028 197.258 35.8342V30.3602H198.463V37.5002ZM204.21 37.5002V32.9038C204.21 32.299 204.108 31.8651 203.905 31.6022C203.701 31.3395 203.391 31.2081 202.974 31.2081C202.617 31.2081 202.319 31.2973 202.081 31.4758C201.843 31.6543 201.654 31.8278 201.515 31.9965V37.5002H200.309V30.3602H201.411V31.1635H201.441C201.471 31.104 201.535 31.0172 201.634 30.9031C201.734 30.7891 201.863 30.68 202.021 30.5758C202.18 30.4717 202.369 30.3801 202.587 30.3007C202.805 30.2213 203.054 30.1817 203.332 30.1817C203.649 30.1817 203.937 30.2288 204.195 30.323C204.453 30.4172 204.671 30.5685 204.85 30.7767C205.029 30.985 205.168 31.2552 205.267 31.5873C205.366 31.9196 205.416 32.3287 205.416 32.8146V37.5002H204.21ZM206.89 34.0343C206.89 33.3105 206.984 32.7055 207.172 32.2196C207.361 31.7337 207.604 31.342 207.902 31.0445C208.2 30.747 208.537 30.5362 208.914 30.4122C209.291 30.2883 209.668 30.2263 210.046 30.2263C210.274 30.2263 210.472 30.2437 210.641 30.2785C210.81 30.3131 210.949 30.3552 211.058 30.4048V26.9836L212.264 26.8497V37.5002H211.162V36.7416H211.132C211.103 36.8011 211.048 36.8828 210.969 36.987C210.889 37.0911 210.78 37.1952 210.641 37.2993C210.502 37.4035 210.329 37.4927 210.12 37.5672C209.912 37.6416 209.668 37.6787 209.391 37.6787C209.053 37.6787 208.733 37.6118 208.43 37.4778C208.128 37.344 207.862 37.1308 207.634 36.8382C207.406 36.5457 207.225 36.1688 207.091 35.7077C206.957 35.2466 206.89 34.6888 206.89 34.0343ZM209.718 36.6077C209.907 36.6077 210.075 36.583 210.224 36.5333C210.373 36.4837 210.502 36.4217 210.611 36.3473C210.721 36.273 210.812 36.1962 210.887 36.1168C210.961 36.0375 211.018 35.9681 211.058 35.9086V31.5056C210.949 31.4362 210.822 31.3767 210.678 31.3271C210.534 31.2775 210.353 31.2527 210.135 31.2527C209.857 31.2527 209.597 31.2998 209.353 31.394C209.11 31.4882 208.899 31.6445 208.721 31.8626C208.542 32.0807 208.401 32.3633 208.296 32.7105C208.192 33.0576 208.14 33.484 208.14 33.9897C208.14 34.4856 208.182 34.8996 208.267 35.2317C208.351 35.564 208.468 35.8317 208.616 36.035C208.765 36.2383 208.934 36.3846 209.123 36.4738C209.311 36.5631 209.51 36.6077 209.718 36.6077ZM218.695 32.77C218.695 33.0773 218.685 33.3426 218.665 33.5657C218.645 33.7888 218.626 33.9847 218.606 34.1533H214.958C214.998 34.9962 215.179 35.6161 215.502 36.0127C215.824 36.4093 216.288 36.6077 216.894 36.6077C217.102 36.6077 217.291 36.583 217.459 36.5333C217.628 36.4837 217.775 36.4242 217.899 36.3548C218.023 36.2855 218.127 36.216 218.211 36.1466C218.296 36.0772 218.358 36.0226 218.397 35.983L218.844 36.8308C218.794 36.8805 218.72 36.9523 218.621 37.0465C218.521 37.1407 218.388 37.235 218.219 37.3292C218.05 37.4233 217.842 37.5052 217.593 37.5746C217.345 37.644 217.053 37.6787 216.715 37.6787C216.269 37.6787 215.864 37.6043 215.502 37.4556C215.14 37.3068 214.832 37.0762 214.579 36.7638C214.326 36.4515 214.13 36.0548 213.991 35.5738C213.852 35.093 213.782 34.5153 213.782 33.841C213.782 33.2063 213.854 32.6583 213.998 32.1972C214.142 31.7361 214.338 31.3568 214.586 31.0593C214.834 30.7618 215.122 30.5412 215.45 30.3973C215.777 30.2536 216.13 30.1817 216.507 30.1817C217.192 30.1817 217.727 30.3973 218.115 30.8287C218.502 31.2601 218.695 31.9072 218.695 32.77ZM216.432 31.1635C216.006 31.1635 215.663 31.342 215.405 31.699C215.147 32.056 214.998 32.5716 214.958 33.246H217.564C217.574 33.1963 217.581 33.1245 217.586 33.0302C217.591 32.9361 217.593 32.8345 217.593 32.7253C217.593 32.2295 217.494 31.8452 217.296 31.5725C217.097 31.2998 216.809 31.1635 216.432 31.1635ZM223.385 31.8031C223.305 31.7138 223.161 31.5923 222.953 31.4386C222.744 31.285 222.471 31.2081 222.134 31.2081C221.816 31.2081 221.573 31.2825 221.405 31.4312C221.236 31.58 221.152 31.7585 221.152 31.9667C221.152 32.2345 221.228 32.4551 221.382 32.6286C221.536 32.8022 221.772 32.9881 222.089 33.1865L222.536 33.4542C223.022 33.7418 223.405 34.0517 223.682 34.3838C223.96 34.7161 224.099 35.145 224.099 35.6706C224.099 36.2358 223.903 36.7118 223.511 37.0986C223.119 37.4853 222.556 37.6787 221.821 37.6787C221.534 37.6787 221.281 37.649 221.062 37.5895C220.844 37.53 220.653 37.4606 220.489 37.3812C220.325 37.3018 220.189 37.2151 220.08 37.121C219.97 37.0267 219.881 36.94 219.812 36.8606L220.392 35.9086C220.452 35.9681 220.524 36.0375 220.608 36.1168C220.693 36.1962 220.794 36.273 220.913 36.3473C221.032 36.4217 221.166 36.4837 221.315 36.5333C221.464 36.583 221.638 36.6077 221.836 36.6077C222.194 36.6077 222.467 36.5283 222.655 36.3697C222.844 36.2111 222.938 36.0177 222.938 35.7896C222.938 35.621 222.916 35.4747 222.871 35.3507C222.826 35.2268 222.759 35.1152 222.67 35.0161C222.581 34.917 222.472 34.8227 222.343 34.7335C222.214 34.6442 222.065 34.5451 221.896 34.436L221.449 34.1533C221.003 33.8657 220.653 33.5633 220.4 33.246C220.147 32.9286 220.02 32.5221 220.02 32.0262C220.02 31.7585 220.072 31.513 220.176 31.2898C220.281 31.0668 220.427 30.8735 220.616 30.7097C220.804 30.5461 221.025 30.4172 221.278 30.323C221.531 30.2288 221.802 30.1817 222.089 30.1817C222.367 30.1817 222.605 30.209 222.804 30.2635C223.003 30.3181 223.174 30.3875 223.318 30.4717C223.462 30.5561 223.581 30.6403 223.675 30.7246C223.769 30.809 223.846 30.8808 223.906 30.9403L223.385 31.8031ZM228.655 31.4163C228.625 31.3965 228.56 31.3717 228.461 31.342C228.362 31.3122 228.228 31.2973 228.059 31.2973C227.682 31.2973 227.387 31.399 227.173 31.6022C226.96 31.8056 226.809 32.0262 226.719 32.2642V37.5002H225.514V30.3602H226.615V31.3271H226.645C226.695 31.1882 226.759 31.0518 226.838 30.918C226.918 30.7841 227.017 30.6651 227.136 30.561C227.255 30.4568 227.397 30.3751 227.56 30.3156C227.724 30.2561 227.92 30.2263 228.149 30.2263C228.317 30.2263 228.454 30.2412 228.558 30.271C228.662 30.3007 228.744 30.3255 228.804 30.3453L228.655 31.4163ZM234.252 32.77C234.252 33.0773 234.242 33.3426 234.223 33.5657C234.203 33.7888 234.183 33.9847 234.163 34.1533H230.516C230.555 34.9962 230.736 35.6161 231.059 36.0127C231.382 36.4093 231.846 36.6077 232.451 36.6077C232.659 36.6077 232.848 36.583 233.017 36.5333C233.185 36.4837 233.332 36.4242 233.456 36.3548C233.58 36.2855 233.684 36.216 233.769 36.1466C233.853 36.0772 233.915 36.0226 233.955 35.983L234.401 36.8308C234.352 36.8805 234.277 36.9523 234.178 37.0465C234.079 37.1407 233.945 37.235 233.776 37.3292C233.607 37.4233 233.399 37.5052 233.151 37.5746C232.903 37.644 232.61 37.6787 232.272 37.6787C231.826 37.6787 231.421 37.6043 231.059 37.4556C230.697 37.3068 230.389 37.0762 230.136 36.7638C229.883 36.4515 229.687 36.0548 229.548 35.5738C229.409 35.093 229.34 34.5153 229.34 33.841C229.34 33.2063 229.411 32.6583 229.555 32.1972C229.699 31.7361 229.895 31.3568 230.143 31.0593C230.392 30.7618 230.679 30.5412 231.007 30.3973C231.334 30.2536 231.687 30.1817 232.064 30.1817C232.749 30.1817 233.285 30.3973 233.672 30.8287C234.059 31.2601 234.252 31.9072 234.252 32.77ZM231.989 31.1635C231.563 31.1635 231.22 31.342 230.962 31.699C230.704 32.056 230.555 32.5716 230.516 33.246H233.121C233.131 33.1963 233.138 33.1245 233.143 33.0302C233.148 32.9361 233.151 32.8345 233.151 32.7253C233.151 32.2295 233.051 31.8452 232.853 31.5725C232.654 31.2998 232.367 31.1635 231.989 31.1635ZM240.981 31.2973H240.088C240.316 31.6742 240.431 32.1006 240.431 32.5766C240.431 32.9535 240.368 33.2931 240.244 33.5955C240.12 33.898 239.947 34.1533 239.723 34.3616C239.5 34.5698 239.237 34.7285 238.934 34.8376C238.632 34.9467 238.307 35.0012 237.959 35.0012C237.89 35.0012 237.825 35.0012 237.766 35.0012C237.706 35.0012 237.642 34.9962 237.572 34.9863C237.453 35.036 237.329 35.1152 237.2 35.2243C237.071 35.3335 237.006 35.4772 237.006 35.6557C237.006 35.8045 237.064 35.926 237.178 36.0201C237.292 36.1143 237.478 36.1615 237.736 36.1615H238.644C238.981 36.1615 239.294 36.1962 239.582 36.2656C239.87 36.335 240.12 36.4466 240.334 36.6002C240.547 36.754 240.713 36.9498 240.832 37.1878C240.952 37.4258 241.011 37.7135 241.011 38.0506C241.011 38.4373 240.929 38.7893 240.766 39.1067C240.602 39.4241 240.371 39.6967 240.073 39.9248C239.775 40.153 239.413 40.3315 238.986 40.4603C238.56 40.5892 238.083 40.6537 237.557 40.6537C236.793 40.6537 236.212 40.4876 235.815 40.1555C235.419 39.8232 235.22 39.3447 235.22 38.72C235.22 38.4522 235.267 38.2217 235.361 38.0283C235.456 37.835 235.567 37.6663 235.696 37.5226C235.825 37.3787 235.957 37.2647 236.091 37.1803C236.225 37.0961 236.332 37.0292 236.411 36.9796V36.9498C236.103 36.7217 235.949 36.3896 235.949 35.9532C235.949 35.7648 235.987 35.6012 236.061 35.4623C236.136 35.3235 236.22 35.2095 236.314 35.1202C236.408 35.031 236.503 34.9591 236.597 34.9045C236.691 34.85 236.763 34.8128 236.813 34.793V34.7632C236.446 34.5946 236.15 34.3293 235.927 33.9673C235.704 33.6055 235.592 33.1418 235.592 32.5766C235.592 32.18 235.657 31.8303 235.786 31.528C235.915 31.2255 236.088 30.9751 236.307 30.7767C236.525 30.5783 236.781 30.4296 237.074 30.3305C237.366 30.2313 237.681 30.1817 238.019 30.1817C238.356 30.1817 238.674 30.2412 238.972 30.3602H241.145L240.981 31.2973ZM237.661 37.2771C237.453 37.2771 237.269 37.2622 237.111 37.2325C237.021 37.2821 236.935 37.3416 236.85 37.411C236.766 37.4803 236.689 37.5647 236.619 37.6638C236.55 37.763 236.493 37.8795 236.448 38.0135C236.404 38.1473 236.381 38.3035 236.381 38.482C236.381 39.2456 236.803 39.6273 237.647 39.6273C238.371 39.6273 238.907 39.4861 239.254 39.2035C239.602 38.9208 239.775 38.596 239.775 38.2291C239.775 37.882 239.666 37.6366 239.448 37.4927C239.23 37.349 238.937 37.2771 238.57 37.2771H237.661ZM239.254 32.5766C239.254 32.061 239.133 31.694 238.89 31.4758C238.647 31.2577 238.361 31.1486 238.034 31.1486C237.686 31.1486 237.389 31.2577 237.14 31.4758C236.892 31.694 236.768 32.061 236.768 32.5766C236.768 33.0922 236.892 33.4592 237.14 33.6773C237.389 33.8955 237.676 34.0046 238.004 34.0046C238.351 34.0046 238.647 33.8955 238.89 33.6773C239.133 33.4592 239.254 33.0922 239.254 32.5766ZM243.557 37.5002H242.351V30.3602H243.557V37.5002ZM242.961 28.6347C242.713 28.6347 242.515 28.5553 242.366 28.3967C242.217 28.2381 242.143 28.0298 242.143 27.772C242.143 27.5241 242.217 27.3207 242.366 27.1621C242.515 27.0035 242.713 26.9241 242.961 26.9241C243.2 26.9241 243.393 27.0035 243.542 27.1621C243.691 27.3207 243.765 27.5241 243.765 27.772C243.765 28.0298 243.691 28.2381 243.542 28.3967C243.393 28.5553 243.2 28.6347 242.961 28.6347ZM249.988 32.77C249.988 33.0773 249.978 33.3426 249.958 33.5657C249.938 33.7888 249.919 33.9847 249.899 34.1533H246.251C246.291 34.9962 246.472 35.6161 246.795 36.0127C247.117 36.4093 247.581 36.6077 248.187 36.6077C248.395 36.6077 248.584 36.583 248.752 36.5333C248.921 36.4837 249.068 36.4242 249.192 36.3548C249.316 36.2855 249.42 36.216 249.504 36.1466C249.589 36.0772 249.651 36.0226 249.69 35.983L250.137 36.8308C250.087 36.8805 250.013 36.9523 249.914 37.0465C249.814 37.1407 249.681 37.235 249.512 37.3292C249.343 37.4233 249.135 37.5052 248.886 37.5746C248.638 37.644 248.346 37.6787 248.008 37.6787C247.562 37.6787 247.157 37.6043 246.795 37.4556C246.433 37.3068 246.125 37.0762 245.872 36.7638C245.619 36.4515 245.423 36.0548 245.284 35.5738C245.145 35.093 245.075 34.5153 245.075 33.841C245.075 33.2063 245.147 32.6583 245.291 32.1972C245.435 31.7361 245.631 31.3568 245.879 31.0593C246.127 30.7618 246.415 30.5412 246.743 30.3973C247.07 30.2536 247.423 30.1817 247.8 30.1817C248.485 30.1817 249.02 30.3973 249.408 30.8287C249.795 31.2601 249.988 31.9072 249.988 32.77ZM247.725 31.1635C247.299 31.1635 246.956 31.342 246.698 31.699C246.44 32.056 246.291 32.5716 246.251 33.246H248.857C248.867 33.1963 248.874 33.1245 248.879 33.0302C248.884 32.9361 248.886 32.8345 248.886 32.7253C248.886 32.2295 248.787 31.8452 248.589 31.5725C248.39 31.2998 248.102 31.1635 247.725 31.1635ZM254.737 31.4163C254.707 31.3965 254.643 31.3717 254.544 31.342C254.444 31.3122 254.31 31.2973 254.142 31.2973C253.764 31.2973 253.469 31.399 253.256 31.6022C253.043 31.8056 252.891 32.0262 252.802 32.2642V37.5002H251.596V30.3602H252.698V31.3271H252.727C252.777 31.1882 252.841 31.0518 252.921 30.918C253 30.7841 253.1 30.6651 253.219 30.561C253.338 30.4568 253.479 30.3751 253.643 30.3156C253.807 30.2561 254.003 30.2263 254.231 30.2263C254.4 30.2263 254.536 30.2412 254.64 30.271C254.745 30.3007 254.826 30.3255 254.886 30.3453L254.737 31.4163ZM260.93 37.5002H259.829V36.697H259.799C259.769 36.7565 259.704 36.8432 259.605 36.9572C259.506 37.0713 259.379 37.1803 259.226 37.2845C259.072 37.3886 258.886 37.4803 258.667 37.5597C258.449 37.6391 258.206 37.6787 257.938 37.6787C257.62 37.6787 257.335 37.6316 257.082 37.5375C256.829 37.4432 256.613 37.292 256.434 37.0837C256.256 36.8755 256.119 36.6052 256.025 36.273C255.931 35.9408 255.883 35.5317 255.883 35.0458V30.3602H257.089V34.9566C257.089 35.5516 257.186 35.9755 257.38 36.2285C257.573 36.4812 257.873 36.6077 258.28 36.6077C258.628 36.6077 258.92 36.521 259.159 36.3473C259.397 36.1738 259.585 36.0028 259.724 35.8342V30.3602H260.93V37.5002ZM266.677 37.5002V32.9038C266.677 32.299 266.575 31.8651 266.372 31.6022C266.168 31.3395 265.858 31.2081 265.441 31.2081C265.084 31.2081 264.786 31.2973 264.548 31.4758C264.31 31.6543 264.121 31.8278 263.982 31.9965V37.5002H262.776V30.3602H263.878V31.1635H263.908C263.937 31.104 264.002 31.0172 264.101 30.9031C264.2 30.7891 264.33 30.68 264.488 30.5758C264.647 30.4717 264.836 30.3801 265.054 30.3007C265.272 30.2213 265.521 30.1817 265.798 30.1817C266.116 30.1817 266.404 30.2288 266.662 30.323C266.92 30.4172 267.138 30.5685 267.317 30.7767C267.496 30.985 267.635 31.2552 267.734 31.5873C267.833 31.9196 267.883 32.3287 267.883 32.8146V37.5002H266.677ZM274.805 31.2973H273.912C274.14 31.6742 274.254 32.1006 274.254 32.5766C274.254 32.9535 274.192 33.2931 274.068 33.5955C273.944 33.898 273.771 34.1533 273.547 34.3616C273.324 34.5698 273.061 34.7285 272.758 34.8376C272.455 34.9467 272.13 35.0012 271.783 35.0012C271.714 35.0012 271.649 35.0012 271.59 35.0012C271.53 35.0012 271.465 34.9962 271.396 34.9863C271.277 35.036 271.153 35.1152 271.024 35.2243C270.895 35.3335 270.83 35.4772 270.83 35.6557C270.83 35.8045 270.887 35.926 271.002 36.0201C271.116 36.1143 271.302 36.1615 271.56 36.1615H272.468C272.805 36.1615 273.118 36.1962 273.406 36.2656C273.694 36.335 273.944 36.4466 274.158 36.6002C274.371 36.754 274.537 36.9498 274.656 37.1878C274.775 37.4258 274.835 37.7135 274.835 38.0506C274.835 38.4373 274.753 38.7893 274.589 39.1067C274.426 39.4241 274.195 39.6967 273.897 39.9248C273.599 40.153 273.237 40.3315 272.81 40.4603C272.384 40.5892 271.907 40.6537 271.381 40.6537C270.617 40.6537 270.036 40.4876 269.639 40.1555C269.242 39.8232 269.044 39.3447 269.044 38.72C269.044 38.4522 269.091 38.2217 269.185 38.0283C269.279 37.835 269.391 37.6663 269.52 37.5226C269.649 37.3787 269.781 37.2647 269.915 37.1803C270.049 37.0961 270.155 37.0292 270.235 36.9796V36.9498C269.927 36.7217 269.773 36.3896 269.773 35.9532C269.773 35.7648 269.811 35.6012 269.885 35.4623C269.959 35.3235 270.044 35.2095 270.138 35.1202C270.232 35.031 270.327 34.9591 270.421 34.9045C270.515 34.85 270.587 34.8128 270.637 34.793V34.7632C270.27 34.5946 269.974 34.3293 269.751 33.9673C269.528 33.6055 269.416 33.1418 269.416 32.5766C269.416 32.18 269.481 31.8303 269.61 31.528C269.738 31.2255 269.912 30.9751 270.131 30.7767C270.349 30.5783 270.604 30.4296 270.897 30.3305C271.19 30.2313 271.505 30.1817 271.843 30.1817C272.18 30.1817 272.498 30.2412 272.795 30.3602H274.969L274.805 31.2973ZM271.485 37.2771C271.277 37.2771 271.093 37.2622 270.934 37.2325C270.845 37.2821 270.758 37.3416 270.674 37.411C270.59 37.4803 270.513 37.5647 270.443 37.6638C270.374 37.763 270.317 37.8795 270.272 38.0135C270.227 38.1473 270.205 38.3035 270.205 38.482C270.205 39.2456 270.627 39.6273 271.47 39.6273C272.195 39.6273 272.731 39.4861 273.078 39.2035C273.426 38.9208 273.599 38.596 273.599 38.2291C273.599 37.882 273.49 37.6366 273.272 37.4927C273.053 37.349 272.761 37.2771 272.393 37.2771H271.485ZM273.078 32.5766C273.078 32.061 272.957 31.694 272.714 31.4758C272.47 31.2577 272.185 31.1486 271.857 31.1486C271.51 31.1486 271.212 31.2577 270.964 31.4758C270.716 31.694 270.592 32.061 270.592 32.5766C270.592 33.0922 270.716 33.4592 270.964 33.6773C271.212 33.8955 271.5 34.0046 271.828 34.0046C272.175 34.0046 272.47 33.8955 272.714 33.6773C272.957 33.4592 273.078 33.0922 273.078 32.5766ZM82.1196 46.342H80.6606V52.5002H79.4548V46.342H78.5913V45.5387L79.4548 45.3751V43.9471C79.4548 43.5603 79.5093 43.2281 79.6185 42.9505C79.7277 42.6728 79.8716 42.4447 80.0503 42.2662C80.2289 42.0877 80.4373 41.9588 80.6755 41.8795C80.9137 41.8001 81.1668 41.7605 81.4348 41.7605C81.6929 41.7605 81.9112 41.7952 82.0898 41.8646C82.2685 41.934 82.3876 41.9886 82.4471 42.0282L82.194 43.0248C82.1345 42.9852 82.0502 42.943 81.9409 42.8983C81.8317 42.8537 81.6977 42.8315 81.539 42.8315C81.2511 42.8315 81.0328 42.9207 80.8839 43.0992C80.7351 43.2777 80.6606 43.605 80.6606 44.081V45.3602H82.2685L82.1196 46.342ZM88.3127 52.5002H87.211V51.697H87.1812C87.1515 51.7565 87.0869 51.8432 86.9877 51.9572C86.8885 52.0713 86.7619 52.1803 86.6082 52.2845C86.4543 52.3886 86.2681 52.4803 86.0498 52.5597C85.8315 52.6391 85.5883 52.6787 85.3203 52.6787C85.0027 52.6787 84.7175 52.6316 84.4644 52.5375C84.2113 52.4432 83.9954 52.292 83.8167 52.0837C83.6381 51.8755 83.5016 51.6052 83.4074 51.273C83.3131 50.9408 83.2659 50.5317 83.2659 50.0458V45.3602H84.4718V49.9566C84.4718 50.5516 84.5686 50.9755 84.7621 51.2285C84.9557 51.4812 85.2558 51.6077 85.6627 51.6077C86.0102 51.6077 86.3029 51.521 86.5411 51.3473C86.7793 51.1738 86.9678 51.0028 87.1068 50.8342V45.3602H88.3127V52.5002ZM85.3501 43.3075C85.3501 43.5356 85.2807 43.719 85.1417 43.8578C85.0027 43.9967 84.8341 44.0661 84.6355 44.0661C84.437 44.0661 84.2684 43.9967 84.1294 43.8578C83.9904 43.719 83.9209 43.5356 83.9209 43.3075C83.9209 43.0793 83.9904 42.896 84.1294 42.7571C84.2684 42.6182 84.437 42.5488 84.6355 42.5488C84.8341 42.5488 85.0027 42.6182 85.1417 42.7571C85.2807 42.896 85.3501 43.0793 85.3501 43.3075ZM87.6428 43.3075C87.6428 43.5356 87.5733 43.719 87.4343 43.8578C87.2953 43.9967 87.1267 44.0661 86.9282 44.0661C86.7296 44.0661 86.561 43.9967 86.422 43.8578C86.283 43.719 86.2136 43.5356 86.2136 43.3075C86.2136 43.0793 86.283 42.896 86.422 42.7571C86.561 42.6182 86.7296 42.5488 86.9282 42.5488C87.1267 42.5488 87.2953 42.6182 87.4343 42.7571C87.5733 42.896 87.6428 43.0793 87.6428 43.3075ZM93.2999 46.4163C93.2701 46.3965 93.2056 46.3717 93.1064 46.342C93.0072 46.3122 92.8732 46.2973 92.7044 46.2973C92.3272 46.2973 92.032 46.399 91.8187 46.6022C91.6053 46.8056 91.4539 47.0262 91.3646 47.2642V52.5002H90.1587V45.3602H91.2603V46.3271H91.2901C91.3398 46.1882 91.4042 46.0518 91.4837 45.918C91.5631 45.7841 91.6623 45.6651 91.7814 45.561C91.9005 45.4568 92.0419 45.3751 92.2056 45.3156C92.3695 45.2561 92.5654 45.2263 92.7937 45.2263C92.9625 45.2263 93.099 45.2412 93.2032 45.271C93.3074 45.3007 93.3892 45.3255 93.4488 45.3453L93.2999 46.4163ZM100.714 47.2493L104.197 52.5002H102.604L99.627 47.8295H98.8528V52.5002H97.5577V42.2365H98.8528V46.8031H99.6419L102.515 42.2365H103.959L100.714 47.2493ZM110.048 52.5002H108.946V51.697H108.917C108.887 51.7565 108.822 51.8432 108.723 51.9572C108.624 52.0713 108.497 52.1803 108.344 52.2845C108.19 52.3886 108.003 52.4803 107.785 52.5597C107.567 52.6391 107.324 52.6787 107.056 52.6787C106.738 52.6787 106.453 52.6316 106.2 52.5375C105.947 52.4432 105.731 52.292 105.552 52.0837C105.373 51.8755 105.237 51.6052 105.143 51.273C105.048 50.9408 105.001 50.5317 105.001 50.0458V45.3602H106.207V49.9566C106.207 50.5516 106.304 50.9755 106.498 51.2285C106.691 51.4812 106.991 51.6077 107.398 51.6077C107.746 51.6077 108.038 51.521 108.276 51.3473C108.515 51.1738 108.703 51.0028 108.842 50.8342V45.3602H110.048V52.5002ZM113.085 50.8342C113.085 51.1317 113.127 51.34 113.212 51.459C113.296 51.578 113.442 51.6375 113.651 51.6375C113.76 51.6375 113.852 51.6276 113.926 51.6077C114.001 51.5878 114.058 51.5681 114.097 51.5482L114.202 52.4407C114.142 52.4705 114.033 52.5101 113.874 52.5597C113.715 52.6093 113.502 52.6341 113.234 52.6341C112.827 52.6341 112.499 52.5101 112.251 52.2622C112.003 52.0143 111.879 51.573 111.879 50.9383V41.9836L113.085 41.8497V50.8342ZM118.34 46.342H116.777V50.2987C116.777 50.8045 116.842 51.1491 116.971 51.3325C117.1 51.516 117.318 51.6077 117.626 51.6077C117.804 51.6077 117.958 51.583 118.087 51.5333C118.216 51.4837 118.31 51.4391 118.37 51.3995L118.534 52.3663C118.484 52.406 118.365 52.468 118.176 52.5523C117.988 52.6366 117.735 52.6787 117.417 52.6787C116.802 52.6787 116.34 52.5077 116.033 52.1655C115.725 51.8235 115.571 51.2557 115.571 50.4623V46.342H114.708V45.5387L115.571 45.3602L115.705 43.367H116.777V45.3602H118.489L118.34 46.342ZM124.712 52.5002H123.61V51.697H123.581C123.551 51.7565 123.486 51.8432 123.387 51.9572C123.288 52.0713 123.161 52.1803 123.007 52.2845C122.854 52.3886 122.667 52.4803 122.449 52.5597C122.231 52.6391 121.988 52.6787 121.72 52.6787C121.402 52.6787 121.117 52.6316 120.864 52.5375C120.611 52.4432 120.395 52.292 120.216 52.0837C120.037 51.8755 119.901 51.6052 119.807 51.273C119.712 50.9408 119.665 50.5317 119.665 50.0458V45.3602H120.871V49.9566C120.871 50.5516 120.968 50.9755 121.161 51.2285C121.355 51.4812 121.655 51.6077 122.062 51.6077C122.409 51.6077 122.702 51.521 122.94 51.3473C123.179 51.1738 123.367 51.0028 123.506 50.8342V45.3602H124.712V52.5002ZM129.699 46.4163C129.669 46.3965 129.605 46.3717 129.506 46.342C129.406 46.3122 129.272 46.2973 129.104 46.2973C128.727 46.2973 128.431 46.399 128.218 46.6022C128.005 46.8056 127.853 47.0262 127.764 47.2642V52.5002H126.558V45.3602H127.66V46.3271H127.689C127.739 46.1882 127.804 46.0518 127.883 45.918C127.962 45.7841 128.062 45.6651 128.181 45.561C128.3 45.4568 128.441 45.3751 128.605 45.3156C128.769 45.2561 128.965 45.2263 129.193 45.2263C129.362 45.2263 129.498 45.2412 129.603 45.271C129.707 45.3007 129.789 45.3255 129.848 45.3453L129.699 46.4163ZM138.706 52.5002H137.604V51.697H137.575C137.545 51.7565 137.48 51.8432 137.381 51.9572C137.282 52.0713 137.155 52.1803 137.001 52.2845C136.848 52.3886 136.661 52.4803 136.443 52.5597C136.225 52.6391 135.982 52.6787 135.714 52.6787C135.396 52.6787 135.111 52.6316 134.858 52.5375C134.605 52.4432 134.389 52.292 134.21 52.0837C134.031 51.8755 133.895 51.6052 133.801 51.273C133.706 50.9408 133.659 50.5317 133.659 50.0458V45.3602H134.865V49.9566C134.865 50.5516 134.962 50.9755 135.155 51.2285C135.349 51.4812 135.649 51.6077 136.056 51.6077C136.403 51.6077 136.696 51.521 136.934 51.3473C137.173 51.1738 137.361 51.0028 137.5 50.8342V45.3602H138.706V52.5002ZM144.452 52.5002V47.9038C144.452 47.299 144.351 46.8651 144.147 46.6022C143.944 46.3395 143.634 46.2081 143.217 46.2081C142.86 46.2081 142.562 46.2973 142.324 46.4758C142.085 46.6543 141.897 46.8278 141.758 46.9965V52.5002H140.552V45.3602H141.654V46.1635H141.683C141.713 46.104 141.778 46.0172 141.877 45.9031C141.976 45.7891 142.105 45.68 142.264 45.5758C142.423 45.4717 142.611 45.3801 142.83 45.3007C143.048 45.2213 143.296 45.1817 143.574 45.1817C143.892 45.1817 144.179 45.2288 144.438 45.323C144.696 45.4172 144.914 45.5685 145.093 45.7767C145.271 45.985 145.41 46.2552 145.509 46.5873C145.609 46.9196 145.658 47.3287 145.658 47.8146V52.5002H144.452ZM147.132 49.0343C147.132 48.3105 147.226 47.7055 147.415 47.2196C147.604 46.7337 147.847 46.342 148.145 46.0445C148.442 45.747 148.78 45.5362 149.157 45.4122C149.534 45.2883 149.911 45.2263 150.288 45.2263C150.517 45.2263 150.715 45.2437 150.884 45.2785C151.053 45.3131 151.191 45.3552 151.301 45.4048V41.9836L152.506 41.8497V52.5002H151.405V51.7416H151.375C151.345 51.8011 151.291 51.8828 151.211 51.987C151.132 52.0911 151.023 52.1952 150.884 52.2993C150.745 52.4035 150.571 52.4927 150.363 52.5672C150.154 52.6416 149.911 52.6787 149.633 52.6787C149.296 52.6787 148.976 52.6118 148.673 52.4778C148.37 52.344 148.105 52.1308 147.877 51.8382C147.648 51.5457 147.467 51.1688 147.333 50.7077C147.199 50.2466 147.132 49.6888 147.132 49.0343ZM149.961 51.6077C150.149 51.6077 150.318 51.583 150.467 51.5333C150.616 51.4837 150.745 51.4217 150.854 51.3473C150.963 51.273 151.055 51.1962 151.129 51.1168C151.204 51.0375 151.261 50.9681 151.301 50.9086V46.5056C151.191 46.4362 151.065 46.3767 150.921 46.3271C150.777 46.2775 150.596 46.2527 150.378 46.2527C150.1 46.2527 149.839 46.2998 149.596 46.394C149.353 46.4882 149.142 46.6445 148.963 46.8626C148.785 47.0807 148.643 47.3633 148.539 47.7105C148.435 48.0576 148.383 48.484 148.383 48.9897C148.383 49.4856 148.425 49.8996 148.509 50.2317C148.594 50.564 148.71 50.8317 148.859 51.035C149.008 51.2383 149.177 51.3846 149.365 51.4738C149.554 51.5631 149.752 51.6077 149.961 51.6077ZM166.322 42.2365V52.5002H165.071V47.6212C165.071 47.3138 165.071 47.0113 165.071 46.7138C165.071 46.4163 165.074 46.1387 165.079 45.8808C165.084 45.623 165.091 45.395 165.101 45.1966C165.111 44.9982 165.121 44.8446 165.131 44.7355H165.086C165.037 44.9636 164.935 45.333 164.781 45.8436C164.627 46.3543 164.451 46.9022 164.252 47.4873L162.555 52.5002H161.528L159.831 47.4873C159.632 46.9022 159.456 46.3543 159.303 45.8436C159.149 45.333 159.047 44.9636 158.997 44.7355H158.953C158.963 44.8545 158.973 45.0131 158.982 45.2115C158.992 45.4098 159 45.6353 159.005 45.8882C159.01 46.1411 159.012 46.4163 159.012 46.7138C159.012 47.0113 159.012 47.3138 159.012 47.6212V52.5002H157.762V42.2365H159.206L161.632 49.317C161.742 49.6442 161.838 49.964 161.923 50.2763C162.007 50.5887 162.059 50.859 162.079 51.0871H162.109C162.119 50.859 162.166 50.5912 162.25 50.2838C162.335 49.9765 162.431 49.6591 162.54 49.3318L164.967 42.2365H166.322ZM172.947 47.77C172.947 48.0773 172.937 48.3426 172.917 48.5657C172.897 48.7888 172.877 48.9847 172.857 49.1533H169.21C169.25 49.9962 169.431 50.6161 169.753 51.0127C170.076 51.4093 170.54 51.6077 171.145 51.6077C171.354 51.6077 171.542 51.583 171.711 51.5333C171.88 51.4837 172.026 51.4242 172.15 51.3548C172.274 51.2855 172.378 51.216 172.463 51.1466C172.547 51.0772 172.609 51.0226 172.649 50.983L173.096 51.8308C173.046 51.8805 172.971 51.9523 172.872 52.0465C172.773 52.1407 172.639 52.235 172.47 52.3292C172.301 52.4233 172.093 52.5052 171.845 52.5746C171.597 52.644 171.304 52.6787 170.967 52.6787C170.52 52.6787 170.116 52.6043 169.753 52.4556C169.391 52.3068 169.083 52.0762 168.83 51.7638C168.577 51.4515 168.381 51.0548 168.242 50.5738C168.103 50.093 168.034 49.5153 168.034 48.841C168.034 48.2063 168.106 47.6583 168.25 47.1972C168.394 46.7361 168.59 46.3568 168.838 46.0593C169.086 45.7618 169.374 45.5412 169.701 45.3973C170.029 45.2536 170.381 45.1817 170.758 45.1817C171.443 45.1817 171.979 45.3973 172.366 45.8287C172.753 46.2601 172.947 46.9072 172.947 47.77ZM170.684 46.1635C170.257 46.1635 169.915 46.342 169.657 46.699C169.398 47.056 169.25 47.5716 169.21 48.246H171.815C171.825 48.1963 171.833 48.1245 171.838 48.0302C171.842 47.9361 171.845 47.8345 171.845 47.7253C171.845 47.2295 171.746 46.8452 171.547 46.5725C171.349 46.2998 171.061 46.1635 170.684 46.1635ZM174.227 49.0343C174.227 48.3105 174.321 47.7055 174.51 47.2196C174.698 46.7337 174.942 46.342 175.239 46.0445C175.537 45.747 175.874 45.5362 176.252 45.4122C176.629 45.2883 177.006 45.2263 177.383 45.2263C177.611 45.2263 177.81 45.2437 177.979 45.2785C178.147 45.3131 178.286 45.3552 178.395 45.4048V41.9836L179.601 41.8497V52.5002H178.5V51.7416H178.47C178.44 51.8011 178.385 51.8828 178.306 51.987C178.227 52.0911 178.118 52.1952 177.979 52.2993C177.84 52.4035 177.666 52.4927 177.457 52.5672C177.249 52.6416 177.006 52.6787 176.728 52.6787C176.391 52.6787 176.07 52.6118 175.768 52.4778C175.465 52.344 175.2 52.1308 174.971 51.8382C174.743 51.5457 174.562 51.1688 174.428 50.7077C174.294 50.2466 174.227 49.6888 174.227 49.0343ZM177.056 51.6077C177.244 51.6077 177.413 51.583 177.562 51.5333C177.711 51.4837 177.84 51.4217 177.949 51.3473C178.058 51.273 178.15 51.1962 178.224 51.1168C178.299 51.0375 178.356 50.9681 178.395 50.9086V46.5056C178.286 46.4362 178.16 46.3767 178.016 46.3271C177.872 46.2775 177.691 46.2527 177.472 46.2527C177.195 46.2527 176.934 46.2998 176.691 46.394C176.448 46.4882 176.237 46.6445 176.058 46.8626C175.879 47.0807 175.738 47.3633 175.634 47.7105C175.53 48.0576 175.477 48.484 175.477 48.9897C175.477 49.4856 175.52 49.8996 175.604 50.2317C175.688 50.564 175.805 50.8317 175.954 51.035C176.103 51.2383 176.271 51.3846 176.46 51.4738C176.649 51.5631 176.847 51.6077 177.056 51.6077ZM182.653 52.5002H181.447V45.3602H182.653V52.5002ZM182.058 43.6347C181.81 43.6347 181.611 43.5553 181.462 43.3967C181.313 43.2381 181.239 43.0298 181.239 42.772C181.239 42.5241 181.313 42.3207 181.462 42.1621C181.611 42.0035 181.81 41.9241 182.058 41.9241C182.296 41.9241 182.489 42.0035 182.638 42.1621C182.787 42.3207 182.862 42.5241 182.862 42.772C182.862 43.0298 182.787 43.2381 182.638 43.3967C182.489 43.5553 182.296 43.6347 182.058 43.6347ZM189.084 47.77C189.084 48.0773 189.075 48.3426 189.055 48.5657C189.035 48.7888 189.015 48.9847 188.995 49.1533H185.348C185.387 49.9962 185.569 50.6161 185.891 51.0127C186.214 51.4093 186.678 51.6077 187.283 51.6077C187.491 51.6077 187.68 51.583 187.849 51.5333C188.018 51.4837 188.164 51.4242 188.288 51.3548C188.412 51.2855 188.516 51.216 188.601 51.1466C188.685 51.0772 188.747 51.0226 188.787 50.983L189.233 51.8308C189.184 51.8805 189.109 51.9523 189.01 52.0465C188.911 52.1407 188.777 52.235 188.608 52.3292C188.439 52.4233 188.231 52.5052 187.983 52.5746C187.735 52.644 187.442 52.6787 187.104 52.6787C186.658 52.6787 186.253 52.6043 185.891 52.4556C185.529 52.3068 185.221 52.0762 184.968 51.7638C184.715 51.4515 184.519 51.0548 184.38 50.5738C184.241 50.093 184.172 49.5153 184.172 48.841C184.172 48.2063 184.244 47.6583 184.388 47.1972C184.531 46.7361 184.727 46.3568 184.976 46.0593C185.224 45.7618 185.511 45.5412 185.839 45.3973C186.167 45.2536 186.519 45.1817 186.896 45.1817C187.581 45.1817 188.117 45.3973 188.504 45.8287C188.891 46.2601 189.084 46.9072 189.084 47.77ZM186.822 46.1635C186.395 46.1635 186.052 46.342 185.794 46.699C185.536 47.056 185.387 47.5716 185.348 48.246H187.953C187.963 48.1963 187.97 48.1245 187.975 48.0302C187.98 47.9361 187.983 47.8345 187.983 47.7253C187.983 47.2295 187.884 46.8452 187.685 46.5725C187.486 46.2998 187.199 46.1635 186.822 46.1635ZM194.593 52.5002V47.9038C194.593 47.299 194.491 46.8651 194.288 46.6022C194.084 46.3395 193.774 46.2081 193.357 46.2081C193 46.2081 192.702 46.2973 192.464 46.4758C192.226 46.6543 192.037 46.8278 191.898 46.9965V52.5002H190.692V45.3602H191.794V46.1635H191.824C191.853 46.104 191.918 46.0172 192.017 45.9031C192.116 45.7891 192.246 45.68 192.404 45.5758C192.563 45.4717 192.752 45.3801 192.97 45.3007C193.188 45.2213 193.436 45.1817 193.714 45.1817C194.032 45.1817 194.32 45.2288 194.578 45.323C194.836 45.4172 195.054 45.5685 195.233 45.7767C195.411 45.985 195.55 46.2552 195.65 46.5873C195.749 46.9196 195.799 47.3287 195.799 47.8146V52.5002H194.593Z" fill="black"></path>
    <path d="M46.5043 36.6739C46.538 36.3939 46.558 36.1052 46.558 35.8102C46.558 35.6489 46.5593 35.4614 46.5393 35.2489C49.0326 35.2139 51.2194 33.4189 51.2194 31.3552C51.2194 30.3052 50.5338 29.5127 50.1472 29.0389C50.2336 29.0202 50.3211 29.0002 50.41 28.9789C50.7753 29.2964 51.8111 30.4239 51.8111 31.8477C51.8111 34.3239 49.3341 36.6227 46.5043 36.6739ZM43.9922 28.0502C43.9459 27.7739 43.8408 27.5239 43.6807 27.3089C43.6894 27.0564 43.7933 26.8152 44.1999 27.0139C43.9797 27.2389 44.1498 27.6377 44.1498 27.6377C44.1498 27.6377 44.6002 27.4289 44.5064 27.1314C45.1744 27.2914 44.694 28.1877 43.9922 28.0502ZM43.413 29.3214C43.3241 28.9514 43.134 28.5714 42.8925 28.2852C42.6723 28.0252 42.3083 27.7164 41.8179 27.7164C41.594 27.7164 41.2187 27.8214 40.9797 27.9227C40.8909 27.7602 40.717 27.3689 40.717 27.1927C40.717 27.0114 41.0235 26.8277 41.6102 26.8277C42.9013 26.8277 43.6719 27.4102 43.6719 28.3877C43.6719 28.7314 43.5356 29.0439 43.413 29.3214ZM46.7282 45.9464C46.8783 45.9464 46.9509 45.9702 47.0384 46.0027C47.41 47.0127 48.8424 48.9189 48.9025 49.0002L48.915 49.0177L48.9363 49.0127C49.2878 48.9564 50.1848 48.8214 50.9354 48.8214H50.9529C51.0342 48.8214 51.1268 48.8214 51.1856 48.8789C51.2344 48.9277 51.2582 49.0127 51.2582 49.1339C51.2582 49.3202 51.1793 49.6389 51.0843 49.7752C50.8215 49.4889 50.3949 49.3602 49.7119 49.3602C49.5067 49.3602 49.264 49.4214 49.1327 49.4564L49.0789 49.4677L49.0176 49.4839L49.4116 49.8777C50.0196 50.4852 50.5451 51.0089 50.5451 51.3577C50.5451 51.5677 50.3399 51.8414 50.1523 51.9627C50.111 51.3239 49.4654 50.4689 48.8362 49.9902L48.7824 49.9502L48.7724 50.1752C48.7636 50.3277 48.7498 50.5564 48.7498 50.8014C48.7498 52.0177 48.626 52.2027 48.2044 52.2027C48.1393 52.2027 48.0405 52.1839 47.9792 52.1614C48.2169 51.8677 48.3107 51.4802 48.3107 50.8002L48.307 50.4864L48.3032 50.2339C48.3032 49.9552 48.332 49.7489 48.3545 49.5827L48.367 49.4889L48.3007 49.4802C48.1031 49.4527 47.7365 49.4027 47.4563 49.4027C46.8545 49.4027 46.4467 49.4577 46.1515 49.7352C45.9563 49.5777 45.7561 49.3064 45.7561 49.1352C45.7561 48.8814 45.9138 48.8614 46.1214 48.8614C46.2265 48.8614 46.3241 48.8764 46.4592 48.8927C46.7182 48.9314 47.1072 48.9889 47.9092 48.9889H47.9592L47.9429 48.9402C47.7403 48.3589 47.1823 47.5139 46.2878 46.4277C46.3679 46.1364 46.4467 45.9464 46.7282 45.9464ZM39.0043 48.9402L38.9881 48.9889H39.0381C39.8388 48.9889 40.2291 48.9314 40.4881 48.8927C40.6232 48.8764 40.7207 48.8614 40.8258 48.8614C41.0322 48.8614 41.1911 48.8814 41.1911 49.1352C41.1911 49.3064 40.991 49.5777 40.7971 49.7352C40.5006 49.4577 40.0927 49.4027 39.4922 49.4027C39.2108 49.4027 38.843 49.4527 38.6465 49.4802L38.6153 49.4839L38.5802 49.4889L38.5915 49.5827C38.6153 49.7489 38.644 49.9552 38.644 50.2339L38.6403 50.4864L38.6365 50.8002C38.6365 51.4802 38.7304 51.8677 38.9693 52.1614C38.9068 52.1839 38.8079 52.2027 38.7429 52.2027C38.32 52.2027 38.1974 52.0177 38.1974 50.8014C38.1974 50.5564 38.1849 50.3277 38.1762 50.1752L38.1636 49.9489L38.1111 49.9902C37.4831 50.4689 36.835 51.3239 36.7963 51.9627C36.6074 51.8414 36.4022 51.5677 36.4022 51.3577C36.4022 51.0089 36.9276 50.4852 37.5356 49.8777L37.8847 49.5289L37.9297 49.4839L37.8146 49.4564C37.6832 49.4214 37.4405 49.3602 37.2341 49.3602C36.5523 49.3602 36.127 49.4889 35.863 49.7752C35.7679 49.6389 35.6891 49.3202 35.6891 49.1339C35.6891 49.0127 35.7129 48.9277 35.7617 48.8789C35.8205 48.8214 35.913 48.8214 35.9944 48.8214H36.0119C36.7625 48.8214 37.6607 48.9564 38.011 49.0127L38.0323 49.0177L38.0448 49.0002C38.1061 48.9189 39.5373 47.0127 39.9101 46.0027C39.9951 45.9702 40.069 45.9464 40.2191 45.9464C40.5006 45.9464 40.5794 46.1364 40.6607 46.4277C39.765 47.5139 39.207 48.3589 39.0043 48.9402ZM35.1362 31.8477C35.1362 30.4239 36.1733 29.2964 36.5386 28.9789C36.6261 29.0002 36.7137 29.0202 36.8013 29.0389C36.4135 29.5127 35.7279 30.3052 35.7279 31.3552C35.7279 33.4402 37.9572 35.2502 40.4818 35.2502C40.4655 35.4289 40.4568 35.6164 40.4568 35.8102C40.4568 36.1177 40.4743 36.4039 40.5043 36.6739C37.6495 36.6564 35.1362 34.3414 35.1362 31.8477ZM54.2844 36.2389C55.5654 38.2627 56.5675 38.2289 58.0813 38.2289C56.829 37.2702 56.0008 36.0414 55.6055 35.4139L53.2661 31.6739C53.0384 30.5189 52.4404 29.4389 51.5446 28.6352C51.8461 28.5214 52.0963 28.4014 52.2465 28.2877C50.719 28.2877 49.2052 27.5127 48.372 27.5127C47.8366 27.5127 47.4926 27.8327 47.4926 28.2552C47.5263 28.7264 48.0117 29.2052 48.9087 29.2052C49.1114 29.2052 49.3716 29.1789 49.6568 29.1314C50.1422 29.8077 50.5338 30.4189 50.5338 31.2914C50.5338 32.9289 48.5747 34.2052 46.5968 34.2052C46.4842 34.2052 46.3779 34.2002 46.2666 34.1927C46.0877 33.7864 45.4909 33.1052 45.4909 32.3302C45.4909 31.0289 46.3404 29.9664 46.3404 28.6777C46.3404 27.8764 45.95 27.3802 45.7999 27.1739C46.0426 26.9489 46.3078 26.6727 46.3704 26.4827C46.229 26.5439 46.0614 26.5514 45.8174 26.5514C44.8692 26.5514 44.096 26.3052 43.3429 26.3052C42.9125 26.3052 42.7975 26.4377 42.7975 26.5639C42.7975 26.6102 42.8037 26.6577 42.8162 26.6802C42.6561 26.6177 42.506 26.5764 42.3271 26.5439C42.1044 26.5014 41.8654 26.4802 41.6102 26.4802C40.6945 26.4802 40.3692 26.8639 40.3692 27.1927C40.3692 27.4702 40.5881 27.9777 40.8371 28.3652C41.1936 28.1852 41.6227 28.0639 41.8179 28.0639C42.3045 28.0639 42.7362 28.5264 42.9651 29.0739C42.6386 29.1139 42.576 29.1277 42.2457 29.1277C41.3538 29.1277 40.747 28.8089 40.6219 28.8089C40.6107 28.8089 40.5869 28.8152 40.5869 28.8352C40.5869 28.9602 40.8396 29.2902 41.3375 29.4714C41.9943 29.7114 42.9776 29.8114 43.1415 29.8389C43.1415 29.8677 42.9751 30.1777 42.7887 30.2377C42.7499 30.2502 42.7186 30.2514 42.6724 30.2414C41.9868 30.1064 41.7954 30.0489 40.9259 29.7189C40.8996 29.7089 40.8834 29.7252 40.8834 29.7527C40.8834 30.0964 41.7741 30.8552 42.5723 31.1464C41.9055 31.9964 41.0735 32.8664 40.6807 34.1927C40.5694 34.2002 40.4618 34.2052 40.3504 34.2052C38.3726 34.2052 36.4135 32.9289 36.4135 31.2914C36.4135 30.4189 36.805 29.8077 37.2904 29.1314C37.5757 29.1789 37.8346 29.2052 38.0385 29.2052C38.9355 29.2052 39.4209 28.7264 39.456 28.2552C39.456 27.8327 39.1119 27.5127 38.5752 27.5127C37.742 27.5127 36.2296 28.2877 34.6995 28.2877C34.8509 28.4014 35.1011 28.5214 35.4014 28.6352C34.5069 29.4389 33.9089 30.5189 33.6812 31.6739L31.3418 35.4139C30.9477 36.0414 30.117 37.2702 28.8647 38.2289C30.3785 38.2289 31.3818 38.2627 32.6629 36.2389L33.8626 34.3214C33.9514 34.5702 34.0603 34.8127 34.1891 35.0502L31.8034 38.8639C31.4068 39.4964 30.5837 40.7139 29.3264 41.6789C30.8401 41.6789 31.8434 41.7139 33.1245 39.6914L35.1774 36.4064C35.3313 36.5702 35.4927 36.7302 35.6628 36.8827L32.7655 41.5177C32.3676 42.1514 31.5495 43.3664 30.2897 44.3302C31.8034 44.3302 32.8067 44.3664 34.0865 42.3427L36.9114 37.8239C37.0978 37.9414 37.2879 38.0552 37.4856 38.1627L34.0365 43.6764C33.6387 44.3102 32.8205 45.5214 31.5607 46.4889C33.0745 46.4889 34.0778 46.5239 35.3588 44.5014L38.9093 38.8227C39.1194 38.9027 39.3321 38.9802 39.5485 39.0489L35.5365 45.4652C35.1449 46.0902 34.308 47.3239 33.0619 48.2777C34.5744 48.2777 35.579 48.3127 36.8588 46.2902L41.1348 39.4527C41.1786 39.4602 41.2212 39.4664 41.2637 39.4752C41.38 39.8452 41.4614 40.1902 41.4614 40.5339C41.4614 42.6827 40.0502 44.5802 38.3563 46.0452C38.4651 46.0927 38.654 46.1089 38.8279 46.1089C39.1782 46.1089 39.4034 46.0902 39.5623 46.0627C39.1695 46.9539 38.3263 48.1052 37.9009 48.7002C37.3467 48.6002 36.5398 48.5227 36.0119 48.5227C35.4589 48.5227 35.3964 48.8452 35.3964 49.1339C35.3964 49.6352 35.6316 50.0339 35.9043 50.2564C36.0069 50.0002 36.2133 49.6577 37.2341 49.6577C37.2541 49.6577 37.2892 49.6602 37.3367 49.6639C37.039 49.9952 36.1044 50.7502 36.1044 51.3577C36.1044 51.7602 36.5461 52.3639 37.1278 52.3639C37.094 52.2339 37.0978 52.1152 37.0978 52.0252C37.0978 51.5327 37.5344 50.9564 37.9034 50.5539C37.8922 50.6739 37.8984 50.6614 37.8984 50.8014C37.8984 51.9652 38.0035 52.5002 38.7429 52.5002C39.1057 52.5002 39.3559 52.3014 39.4422 52.2414C38.9618 51.8002 38.9368 51.4527 38.9368 50.8002C38.938 50.6302 38.9393 50.4639 38.9418 50.2352C38.943 50.0852 38.9405 49.8877 38.9168 49.7452C39.1807 49.7089 39.2883 49.7089 39.4922 49.7089C39.4922 49.7089 40.5418 49.6252 40.7958 50.1714C41.081 49.9102 41.4951 49.5414 41.4951 49.1352C41.4951 48.8664 41.3675 48.5627 40.8258 48.5627C40.6207 48.5627 39.9764 48.6877 39.4372 48.6877C39.5823 48.3664 40.2266 47.4239 40.7858 46.7402C40.8709 47.0052 41.0022 47.2914 41.295 47.5264C41.3362 47.0864 41.594 45.6952 42.282 44.8814C42.3621 45.4314 42.4697 45.9952 42.4697 47.1839C42.4697 50.0764 41.7741 52.2127 40.2966 52.6202C40.4893 52.9539 40.8959 53.2552 41.3175 53.2552C41.8579 53.2552 42.1519 52.6439 42.4522 52.0677C42.6085 52.4927 43.0402 53.5352 43.473 53.5352C43.9059 53.5352 44.3387 52.4927 44.4951 52.0677C44.7941 52.6439 45.0893 53.2552 45.6298 53.2552C46.0514 53.2552 46.458 52.9539 46.6506 52.6202C45.1732 52.2127 44.4763 50.0764 44.4763 47.1839C44.4763 45.9952 44.5839 45.4314 44.664 44.8814C45.3533 45.6952 45.6123 47.0864 45.6511 47.5264C45.945 47.2914 46.0776 47.0052 46.1615 46.7402C46.7194 47.4239 47.365 48.3664 47.5101 48.6877C46.9709 48.6877 46.3254 48.5627 46.1214 48.5627C45.581 48.5627 45.4534 48.8664 45.4534 49.1352C45.4534 49.5414 45.8675 49.9102 46.1527 50.1714C46.4042 49.6252 47.4563 49.7089 47.4563 49.7089C47.6589 49.7089 47.7665 49.7089 48.0318 49.7452C48.0067 49.8877 48.0055 50.0852 48.0067 50.2352C48.0092 50.4639 48.0092 50.6302 48.0105 50.8002C48.0105 51.4527 47.9855 51.8002 47.5051 52.2414C47.5914 52.3014 47.8416 52.5002 48.2044 52.5002C48.9438 52.5002 49.0501 51.9652 49.0501 50.8014C49.0501 50.6614 49.0538 50.6739 49.0438 50.5539C49.4129 50.9564 49.8495 51.5327 49.8495 52.0252C49.8495 52.1152 49.8545 52.2339 49.8182 52.3639C50.4012 52.3639 50.8441 51.7602 50.8441 51.3577C50.8441 50.7502 49.9095 49.9952 49.6093 49.6639C49.6581 49.6602 49.6931 49.6577 49.7119 49.6577C50.734 49.6577 50.9404 50.0002 51.043 50.2564C51.3157 50.0339 51.5509 49.6352 51.5509 49.1339C51.5509 48.8452 51.4883 48.5227 50.9354 48.5227C50.4075 48.5227 49.6018 48.6002 49.0463 48.7002C48.6197 48.1052 47.779 46.9539 47.385 46.0627C47.5439 46.0902 47.7703 46.1089 48.1193 46.1089C48.2945 46.1089 48.4821 46.0927 48.591 46.0452C46.8971 44.5802 45.4859 42.6827 45.4859 40.5339C45.4859 40.1902 45.5672 39.8452 45.6836 39.4752C45.7249 39.4664 45.7699 39.4602 45.8124 39.4527L50.0884 46.2902C51.3682 48.3127 52.3728 48.2777 53.8853 48.2777C52.6393 47.3239 51.8024 46.0902 51.4108 45.4652L47.3975 39.0489C47.6152 38.9802 47.8291 38.9027 48.0393 38.8227L51.5884 44.5014C52.8695 46.5239 53.8728 46.4889 55.3866 46.4889C54.1268 45.5214 53.3086 44.3102 52.9108 43.6764L49.4629 38.1627C49.6581 38.0552 49.8495 37.9414 50.0347 37.8239L52.8607 42.3427C54.1418 44.3664 55.1439 44.3302 56.6576 44.3302C55.3978 43.3664 54.5809 42.1514 54.1818 41.5177L51.2844 36.8827C51.4546 36.7302 51.6172 36.5702 51.7686 36.4064L53.824 39.6914C55.1038 41.7139 56.1071 41.6789 57.6209 41.6789C56.3624 40.7139 55.5417 39.4964 55.1439 38.8639L52.7594 35.0502C52.887 34.8127 52.9958 34.5702 53.0859 34.3214L54.2844 36.2389Z" fill="black"></path>
    <path d="M70.0573 52.5H65.6787V27.5H70.0573V52.5Z" fill="black"></path>
    <path d="M70.0573 77.5H65.6787V52.5H70.0573V77.5Z" fill="#FF0000"></path>
    <path d="M70.0573 102.5H65.6787V77.5H70.0573V102.5Z" fill="#FFCC00"></path>
  </g>
  <defs>
    <clipPath id="clip0_455_284">
      <rect width="304" height="130" fill="white"></rect>
    </clipPath>
  </defs>
</svg>
