<?xml version="1.0" encoding="UTF-8"?>
<svg xmlns="http://www.w3.org/2000/svg" xmlns:xlink="http://www.w3.org/1999/xlink" version="1.1" id="Ebene_1" x="0px" y="0px" width="244px" height="97.255px" viewBox="0 0 244 97.255" xml:space="preserve">
<g>
	<path fill="#FFFFFF" d="M96.012,14.094c0,2.182-1.9,3.36-4.255,3.36c-2.183,0-3.752-0.982-4.452-2.552l2.03-1.178   c0.35,0.982,1.221,1.571,2.422,1.571c1.046,0,1.855-0.35,1.855-1.222c0-1.942-5.871-0.851-5.871-4.757   c0-2.051,1.769-3.338,3.995-3.338c1.788,0,3.271,0.829,4.036,2.269l-1.985,1.113c-0.395-0.851-1.158-1.243-2.051-1.243   c-0.852,0-1.594,0.371-1.594,1.156C90.141,11.257,96.012,10.058,96.012,14.094"></path>
	<path fill="#FFFFFF" d="M101.509,8.53v5.237c0,1.396,0.917,1.375,2.707,1.288v2.117c-3.624,0.437-5.062-0.567-5.062-3.404V8.53   h-2.008V6.261h2.008V3.905l2.355-0.699v3.055h2.707V8.53H101.509z"></path>
	<path fill="#FFFFFF" d="M105.829,3.119c0-0.829,0.677-1.506,1.505-1.506c0.831,0,1.508,0.677,1.508,1.506   c0,0.808-0.677,1.505-1.508,1.505C106.506,4.624,105.829,3.926,105.829,3.119 M106.157,6.261h2.357v10.91h-2.357V6.261z"></path>
	<path fill="#FFFFFF" d="M114.21,6.042v0.219h2.573V8.53h-2.573v8.641h-2.357V8.53h-1.659V6.261h1.659V6.042   c0-2.945,1.658-4.646,4.93-4.429v2.269C115.125,3.73,114.21,4.362,114.21,6.042"></path>
	<path fill="#FFFFFF" d="M122.061,8.53v5.237c0,1.396,0.917,1.375,2.707,1.288v2.117c-3.624,0.437-5.062-0.567-5.062-3.404V8.53   h-2.008V6.261h2.008V3.905l2.355-0.699v3.055h2.707V8.53H122.061z"></path>
	<path fill="#FFFFFF" d="M136.418,6.261v10.91h-2.355v-1.396c-0.72,1.134-1.899,1.68-3.384,1.68c-2.443,0-4.188-1.659-4.188-4.495   V6.261h2.358v6.458c0,1.659,0.959,2.531,2.442,2.531c1.549,0,2.771-0.916,2.771-3.141V6.261H136.418z"></path>
	<path fill="#FFFFFF" d="M149.072,10.472v6.699h-2.358v-6.458c0-1.658-0.959-2.532-2.443-2.532c-1.549,0-2.771,0.917-2.771,3.142   v5.848h-2.355V6.261h2.355v1.396c0.721-1.134,1.897-1.68,3.382-1.68C147.327,5.978,149.072,7.636,149.072,10.472"></path>
	<path fill="#FFFFFF" d="M162.596,6.261v10.409c0,3.512-2.749,5.149-5.607,5.149c-2.4,0-4.255-0.895-5.172-2.64L153.846,18   c0.479,0.938,1.288,1.68,3.186,1.68c2.03,0,3.25-1.113,3.25-3.011v-1.332c-0.828,1.178-2.115,1.899-3.795,1.899   c-3.078,0-5.5-2.509-5.5-5.63c0-3.12,2.422-5.629,5.5-5.629c1.68,0,2.967,0.72,3.795,1.897V6.261H162.596z M160.281,11.606   c0-1.963-1.483-3.426-3.467-3.426c-1.986,0-3.471,1.462-3.471,3.426c0,1.964,1.484,3.426,3.471,3.426   C158.798,15.032,160.281,13.57,160.281,11.606"></path>
	<path fill="#FFFFFF" d="M108.164,29.388v27.446h-4.235v-2.822c-1.49,2.077-3.803,3.333-6.861,3.333   c-5.332,0-9.763-4.51-9.763-10.312c0-5.842,4.431-10.313,9.763-10.313c3.059,0,5.372,1.255,6.861,3.294V29.388H108.164z    M103.929,47.032c0-3.647-2.666-6.274-6.195-6.274c-3.528,0-6.195,2.626-6.195,6.274c0,3.646,2.667,6.273,6.195,6.273   C101.263,53.305,103.929,50.678,103.929,47.032"></path>
	<path fill="#FFFFFF" d="M112.357,31.583c0-1.49,1.214-2.706,2.706-2.706c1.49,0,2.705,1.215,2.705,2.706   c0,1.45-1.215,2.706-2.705,2.706C113.571,34.289,112.357,33.034,112.357,31.583 M112.944,37.229h4.235v19.605h-4.235V37.229z"></path>
	<path fill="#FFFFFF" d="M141.52,37.229v18.703c0,6.313-4.94,9.254-10.077,9.254c-4.313,0-7.646-1.607-9.292-4.745l3.646-2.117   c0.863,1.687,2.313,3.02,5.725,3.02c3.646,0,5.842-2,5.842-5.411v-2.392c-1.49,2.117-3.803,3.411-6.822,3.411   c-5.528,0-9.88-4.51-9.88-10.116c0-5.607,4.352-10.116,9.88-10.116c3.02,0,5.332,1.293,6.822,3.412v-2.902H141.52z M137.363,46.836   c0-3.529-2.666-6.156-6.234-6.156c-3.567,0-6.234,2.627-6.234,6.156s2.667,6.156,6.234,6.156   C134.697,52.992,137.363,50.365,137.363,46.836"></path>
	<path fill="#FFFFFF" d="M145.714,31.583c0-1.49,1.215-2.706,2.705-2.706s2.705,1.215,2.705,2.706c0,1.45-1.215,2.706-2.705,2.706   S145.714,33.034,145.714,31.583 M146.301,37.229h4.235v19.605h-4.235V37.229z"></path>
	<path fill="#FFFFFF" d="M161.048,41.307v9.411c0,2.51,1.646,2.47,4.862,2.313v3.802c-6.509,0.784-9.098-1.02-9.098-6.115v-9.411   h-3.606v-4.078h3.606v-4.235l4.235-1.254v5.489h4.862v4.078H161.048z"></path>
	<path fill="#FFFFFF" d="M188.757,37.229v19.604h-4.236v-2.822c-1.489,2.077-3.802,3.333-6.861,3.333   c-5.332,0-9.763-4.51-9.763-10.312c0-5.842,4.431-10.313,9.763-10.313c3.06,0,5.372,1.255,6.861,3.294v-2.784H188.757z    M184.521,47.032c0-3.647-2.665-6.274-6.194-6.274c-3.527,0-6.194,2.626-6.194,6.274c0,3.646,2.667,6.273,6.194,6.273   C181.855,53.305,184.521,50.678,184.521,47.032"></path>
	<rect x="193.514" y="28.211" fill="#FFFFFF" width="4.234" height="28.623"></rect>
	<path fill="#FFFFFF" d="M212.07,53.461c2.353,0,4.117-1.059,5.059-2.43l3.49,2.038c-1.805,2.667-4.746,4.273-8.588,4.273   c-6.469,0-10.665-4.431-10.665-10.311c0-5.804,4.196-10.313,10.352-10.313c5.842,0,9.841,4.706,9.841,10.351   c0,0.589-0.077,1.216-0.156,1.765h-15.605C206.463,51.894,208.935,53.461,212.07,53.461 M217.286,45.384   c-0.589-3.371-3.06-4.823-5.608-4.823c-3.176,0-5.332,1.883-5.92,4.823H217.286z"></path>
	<path fill="#FFFFFF" d="M87.305,85.35c0-5.842,4.43-10.313,10.351-10.313c3.841,0,7.175,2,8.743,5.059l-3.647,2.116   c-0.861-1.843-2.783-3.02-5.136-3.02c-3.449,0-6.077,2.629-6.077,6.157c0,3.529,2.628,6.156,6.077,6.156   c2.353,0,4.274-1.216,5.215-3.02l3.647,2.077c-1.646,3.099-4.98,5.098-8.821,5.098C91.735,95.662,87.305,91.153,87.305,85.35"></path>
	<path fill="#FFFFFF" d="M127.323,83.115v12.037h-4.236V83.546c0-2.98-1.725-4.548-4.391-4.548c-2.784,0-4.978,1.646-4.978,5.646   v10.508h-4.236V67.706h4.236v10.352c1.292-2.04,3.41-3.02,6.077-3.02C124.186,75.038,127.323,78.017,127.323,83.115"></path>
	<path fill="#FFFFFF" d="M151.556,75.547v19.604h-4.236V92.33c-1.488,2.077-3.803,3.332-6.861,3.332   c-5.332,0-9.763-4.509-9.763-10.312c0-5.842,4.431-10.313,9.763-10.313c3.059,0,5.373,1.255,6.861,3.295v-2.785H151.556z    M147.319,85.35c0-3.647-2.665-6.273-6.193-6.273s-6.196,2.626-6.196,6.273c0,3.646,2.668,6.272,6.196,6.272   S147.319,88.997,147.319,85.35"></path>
	<path fill="#FFFFFF" d="M174.17,83.115v12.037h-4.235V83.546c0-2.98-1.727-4.548-4.392-4.548c-2.784,0-4.979,1.646-4.979,5.646   v10.508h-4.237V75.547h4.237v2.51c1.292-2.04,3.41-3.02,6.076-3.02C171.032,75.038,174.17,78.017,174.17,83.115"></path>
	<path fill="#FFFFFF" d="M177.542,85.35c0-5.842,4.431-10.313,10.352-10.313c3.843,0,7.175,2,8.745,5.059l-3.647,2.116   c-0.862-1.843-2.783-3.02-5.136-3.02c-3.451,0-6.079,2.629-6.079,6.157c0,3.529,2.628,6.156,6.079,6.156   c2.353,0,4.273-1.216,5.215-3.02l3.645,2.077c-1.646,3.099-4.979,5.098-8.821,5.098C181.973,95.662,177.542,91.153,177.542,85.35"></path>
	<path fill="#FFFFFF" d="M209.096,91.78c2.353,0,4.116-1.059,5.057-2.431l3.49,2.039c-1.803,2.667-4.744,4.273-8.588,4.273   c-6.469,0-10.664-4.431-10.664-10.312c0-5.804,4.195-10.313,10.351-10.313c5.843,0,9.841,4.706,9.841,10.352   c0,0.588-0.076,1.215-0.154,1.765H202.82C203.488,90.212,205.958,91.78,209.096,91.78 M214.311,83.703   c-0.589-3.371-3.059-4.822-5.607-4.822c-3.176,0-5.332,1.882-5.921,4.822H214.311z"></path>
	<path fill="#FFFFFF" d="M240.001,83.115v12.037h-4.234V83.546c0-2.98-1.726-4.548-4.392-4.548c-2.783,0-4.98,1.646-4.98,5.646   v10.508h-4.233V75.547h4.233v2.51c1.295-2.04,3.413-3.02,6.079-3.02C236.863,75.038,240.001,78.017,240.001,83.115"></path>
	<path fill="#FFFFFF" d="M29.692,48.385V17.427h18.837c6.666,0,12.12,5.454,12.12,12.121v18.837H29.692z"></path>
	<path fill="#FFFFFF" d="M27.893,48.384V17.426h-8.459v0C10.906,17.45,4.001,24.37,4.001,32.904c0,8.525,6.892,15.439,15.408,15.478   v0.002H27.893z"></path>
	<rect x="29.693" y="48.385" fill="#FFFFFF" width="30.958" height="0.009"></rect>
	<path fill="#FFFFFF" d="M60.651,50.202H29.693v8.466h0.002c0.038,8.517,6.952,15.408,15.478,15.408   c8.534,0,15.454-6.904,15.479-15.433h0V50.202z"></path>
</g>
</svg>
