<?xml version="1.0" encoding="UTF-8"?>
<svg xmlns="http://www.w3.org/2000/svg" width="28" height="28" viewBox="0 0 28 28" fill="none">
  <path d="M8.23182 0.363525H19.7682C21.855 0.363525 23.8563 1.19249 25.3318 2.66806C26.8074 4.14363 27.6364 6.14494 27.6364 8.23171V19.7681C27.6364 21.8548 26.8074 23.8561 25.3318 25.3317C23.8563 26.8073 21.855 27.6363 19.7682 27.6363H8.23182C6.14505 27.6363 4.14375 26.8073 2.66818 25.3317C1.19261 23.8561 0.36364 21.8548 0.36364 19.7681V8.23171C0.36364 6.14494 1.19261 4.14363 2.66818 2.66806C4.14375 1.19249 6.14505 0.363525 8.23182 0.363525ZM7.98637 3.0908C6.67491 3.05939 5.40462 3.54985 4.45455 4.45443C4.00416 4.92312 3.65162 5.4768 3.4175 6.08319C3.18337 6.68957 3.07235 7.33651 3.09091 7.98625V20.0135C3.07235 20.6633 3.18337 21.3102 3.4175 21.9166C3.65162 22.523 4.00416 23.0767 4.45455 23.5453C5.40462 24.4499 6.67491 24.9404 7.98637 24.909H20.0136C21.3087 24.8983 22.5477 24.3791 23.4634 23.4633C24.3792 22.5476 24.8984 21.3086 24.9091 20.0135V7.98625C24.8984 6.6912 24.3792 5.45223 23.4634 4.53646C22.5477 3.62069 21.3087 3.10149 20.0136 3.0908H7.98637ZM14 7.18171C15.3559 7.17379 16.6834 7.57035 17.8128 8.3207C18.9422 9.07104 19.8223 10.1411 20.3405 11.3941C20.8587 12.6472 20.9915 14.0262 20.7219 15.3551C20.4524 16.684 19.7927 17.9023 18.8273 18.8544C18.1916 19.4884 17.4372 19.9909 16.6073 20.3333C15.7774 20.6757 14.8881 20.8512 13.9904 20.85C12.1772 20.8474 10.4394 20.1247 9.15909 18.8408C7.87882 17.5569 7.16101 15.817 7.16357 14.0039C7.16612 12.1907 7.88884 10.4529 9.17273 9.17262C9.8039 8.53557 10.5561 8.03125 11.3852 7.68933C12.2142 7.34742 13.1033 7.17482 14 7.18171ZM14 9.90898C12.9182 9.91715 11.8836 10.3535 11.1227 11.1226C10.7311 11.4912 10.4209 11.9375 10.2119 12.433C10.0029 12.9285 9.89975 13.4622 9.90909 13.9999C9.89005 14.5422 9.98283 15.0827 10.1817 15.5877C10.3805 16.0926 10.6812 16.5512 11.0649 16.935C11.4487 17.3187 11.9073 17.6194 12.4122 17.8182C12.9172 18.0171 13.4576 18.1098 14 18.0908C14.5424 18.1098 15.0828 18.0171 15.5878 17.8182C16.0927 17.6194 16.5513 17.3187 16.9351 16.935C17.3188 16.5512 17.6195 16.0926 17.8183 15.5877C18.0172 15.0827 18.11 14.5422 18.0909 13.9999C18.1073 13.4662 18.0127 12.9349 17.8132 12.4397C17.6137 11.9444 17.3136 11.4959 16.9318 11.1226C16.5486 10.7353 16.0918 10.4284 15.5884 10.22C15.0849 10.0116 14.5449 9.90583 14 9.90898ZM21.1727 5.09534C21.618 5.13966 22.0356 5.33167 22.3591 5.6408C22.513 5.79729 22.6344 5.98268 22.7163 6.18629C22.7982 6.3899 22.839 6.60771 22.8364 6.82716C22.8476 7.05115 22.8127 7.27506 22.7338 7.48499C22.6549 7.69493 22.5337 7.88639 22.3777 8.04752C22.2217 8.20864 22.0342 8.33597 21.8269 8.42161C21.6196 8.50725 21.397 8.54936 21.1727 8.54534C20.944 8.5571 20.7153 8.5207 20.5016 8.43851C20.2878 8.35633 20.0936 8.23017 19.9317 8.06822C19.7697 7.90627 19.6436 7.71212 19.5614 7.49834C19.4792 7.28455 19.4428 7.0559 19.4545 6.82716C19.4488 6.60729 19.4882 6.38858 19.5703 6.18453C19.6524 5.98048 19.7754 5.79543 19.9318 5.6408C20.2655 5.31437 20.7066 5.12049 21.1727 5.09534Z" fill="white"></path>
</svg>
