<?xml version="1.0" encoding="UTF-8" standalone="no"?><!-- Generator: Gravit.io --><svg xmlns="http://www.w3.org/2000/svg" xmlns:xlink="http://www.w3.org/1999/xlink" style="isolation:isolate" viewBox="0 0 197 49" width="197pt" height="49pt"><defs><clipPath id="_clipPath_yWmIt2ygNqrdZQLX3AusZYmAW5mDOe9Y"><rect width="197" height="49"/></clipPath></defs><g clip-path="url(#_clipPath_yWmIt2ygNqrdZQLX3AusZYmAW5mDOe9Y)"><path d=" M 111.003 0.109 L 106.202 0.109 C 104.429 0.109 103.011 1.526 103.011 3.298 L 103.011 41.734 C 103.011 43.506 104.429 44.923 106.202 44.923 C 107.974 44.923 109.392 43.506 109.392 41.734 L 109.392 25.722 L 111.003 25.722 C 114.548 25.722 117.416 22.854 117.416 19.311 L 117.416 6.52 C 117.416 3.008 114.548 0.109 111.003 0.109 Z  M 111.003 19.343 L 109.392 19.343 L 109.392 6.52 L 111.003 6.52 L 111.003 19.343 L 111.003 19.343 Z " fill="rgb(0,0,0)"/><path d=" M 171.427 0.109 C 167.463 0.109 164.209 3.331 164.209 7.326 L 164.209 11.514 C 164.209 13.995 164.789 16.443 165.884 18.666 L 171.202 29.266 C 171.878 30.587 172.201 32.069 172.201 33.551 L 172.201 37.739 C 172.201 38.19 171.846 38.544 171.395 38.544 C 170.944 38.544 170.589 38.19 170.589 37.739 L 170.589 33.744 C 170.589 31.972 169.171 30.554 167.399 30.554 C 165.627 30.554 164.209 31.972 164.209 33.744 L 164.209 37.739 C 164.209 41.702 167.431 44.956 171.427 44.956 C 175.391 44.956 178.646 41.734 178.646 37.739 L 178.646 33.551 C 178.646 31.07 178.066 28.621 176.97 26.398 L 171.653 15.799 C 170.976 14.478 170.654 12.996 170.654 11.514 L 170.654 7.326 C 170.654 6.874 171.008 6.52 171.46 6.52 C 171.911 6.52 172.265 6.874 172.265 7.326 L 172.265 11.321 C 172.265 13.093 173.683 14.51 175.456 14.51 C 177.228 14.51 178.646 13.093 178.646 11.321 L 178.646 7.326 C 178.614 3.363 175.391 0.109 171.427 0.109 Z " fill="rgb(0,0,0)"/><path d=" M 188.797 0.109 C 184.833 0.109 181.578 3.331 181.578 7.326 L 181.578 11.514 C 181.578 13.995 182.159 16.443 183.254 18.666 L 188.572 29.266 C 189.248 30.587 189.571 32.069 189.571 33.551 L 189.571 37.739 C 189.571 38.19 189.216 38.544 188.765 38.544 C 188.314 38.544 187.959 38.19 187.959 37.739 L 187.959 33.744 C 187.959 31.972 186.541 30.554 184.769 30.554 C 182.996 30.554 181.578 31.972 181.578 33.744 L 181.578 37.739 C 181.578 41.702 184.801 44.956 188.797 44.956 C 192.761 44.956 196.016 41.734 196.016 37.739 L 196.016 33.551 C 196.016 31.07 195.436 28.621 194.34 26.398 L 189.023 15.799 C 188.346 14.478 188.024 12.996 188.024 11.514 L 188.024 7.326 C 188.024 6.874 188.378 6.52 188.829 6.52 C 189.281 6.52 189.635 6.874 189.635 7.326 L 189.635 11.321 C 189.635 13.093 191.053 14.51 192.825 14.51 C 194.598 14.51 196.016 13.093 196.016 11.321 L 196.016 7.326 C 195.984 3.363 192.761 0.109 188.797 0.109 Z " fill="rgb(0,0,0)"/><path d=" M 47.389 38.577 L 44.166 38.577 L 44.166 3.331 C 44.166 1.559 42.748 0.141 40.976 0.141 C 39.203 0.141 37.786 1.559 37.786 3.331 L 37.786 41.798 C 37.786 43.57 39.203 44.988 40.976 44.988 L 47.389 44.988 C 49.161 44.988 50.579 43.57 50.579 41.798 C 50.612 40.026 49.161 38.577 47.389 38.577 Z " fill="rgb(0,0,0)"/><path d=" M 98.661 6.52 C 98.661 2.976 95.793 0.109 92.248 0.109 L 87.446 0.109 C 85.674 0.109 84.256 1.526 84.256 3.298 L 84.256 41.766 C 84.256 43.538 85.674 44.956 87.446 44.956 C 89.218 44.956 90.636 43.538 90.636 41.766 L 90.636 25.754 C 91.506 25.754 92.248 26.463 92.248 27.365 L 92.248 41.798 C 92.248 43.57 93.666 44.988 95.438 44.988 C 97.211 44.988 98.628 43.57 98.628 41.798 L 98.628 27.365 C 98.628 25.561 98.016 23.885 97.017 22.564 C 98.016 21.211 98.628 19.568 98.628 17.764 L 98.628 6.52 L 98.661 6.52 L 98.661 6.52 Z  M 92.248 17.764 C 92.248 18.634 91.539 19.375 90.636 19.375 L 90.636 6.52 L 92.248 6.52 L 92.248 17.764 L 92.248 17.764 Z " fill="rgb(0,0,0)"/><path d=" M 11.296 21.018 L 15.904 4.168 C 16.355 2.461 15.356 0.689 13.648 0.238 C 11.94 -0.213 10.168 0.785 9.716 2.493 L 6.397 14.671 L 6.397 3.331 C 6.397 1.559 4.979 0.141 3.207 0.141 C 1.434 0.141 0.016 1.559 0.016 3.331 L 0.016 41.798 C 0.016 43.57 1.434 44.988 3.207 44.988 C 4.979 44.988 6.397 43.57 6.397 41.798 L 6.397 28.235 L 9.684 42.507 C 10.039 43.989 11.328 44.988 12.81 44.988 C 13.036 44.988 13.294 44.956 13.519 44.891 C 15.227 44.505 16.323 42.765 15.904 41.057 L 11.296 21.018 L 11.296 21.018 Z " fill="rgb(0,0,0)"/><path d=" M 30.406 0.109 C 28.633 0.109 27.215 1.526 27.215 3.298 L 27.215 37.739 C 27.215 38.19 26.861 38.544 26.41 38.544 C 25.958 38.544 25.604 38.19 25.604 37.739 L 25.604 3.331 C 25.604 1.559 24.186 0.141 22.414 0.141 C 20.641 0.141 19.223 1.559 19.223 3.331 L 19.223 37.771 C 19.223 41.734 22.446 44.988 26.442 44.988 C 30.406 44.988 33.661 41.766 33.661 37.771 L 33.661 3.331 C 33.628 1.559 32.178 0.109 30.406 0.109 Z " fill="rgb(0,0,0)"/><path d=" M 77.101 0.109 C 75.329 0.109 73.911 1.526 73.911 3.298 L 73.911 37.739 C 73.911 38.19 73.557 38.544 73.105 38.544 C 72.654 38.544 72.3 38.19 72.3 37.739 L 72.3 3.331 C 72.3 1.559 70.882 0.141 69.109 0.141 C 67.337 0.141 65.919 1.559 65.919 3.331 L 65.919 37.771 C 65.919 41.734 69.142 44.988 73.138 44.988 C 77.101 44.988 80.356 41.766 80.356 37.771 L 80.356 3.331 C 80.324 1.559 78.874 0.109 77.101 0.109 Z " fill="rgb(0,0,0)"/><path d=" M 60.537 0.109 L 50.934 0.109 C 49.161 0.109 47.743 1.526 47.743 3.298 C 47.743 5.07 49.161 6.488 50.934 6.488 L 52.545 6.488 L 52.545 41.734 C 52.545 43.506 53.963 44.923 55.735 44.923 C 57.508 44.923 58.926 43.506 58.926 41.734 L 58.926 6.52 L 60.537 6.52 C 62.31 6.52 63.728 5.103 63.728 3.331 C 63.76 1.559 62.31 0.109 60.537 0.109 Z " fill="rgb(0,0,0)"/><path d=" M 138.202 0.109 L 123.861 0.109 C 122.218 0.109 120.671 1.462 120.542 3.105 C 120.413 4.974 121.896 6.52 123.733 6.52 L 138.17 6.52 C 142.907 6.52 147.193 8.614 150.126 11.9 C 146.839 9.387 142.649 7.938 138.138 8.163 C 128.438 8.582 120.671 16.604 120.542 26.302 C 120.413 36.579 128.695 44.988 138.976 44.988 C 143.745 44.988 148.096 43.184 151.35 40.187 L 155.185 44.021 C 155.701 44.537 156.41 44.923 157.183 44.956 C 159.052 45.085 160.599 43.603 160.599 41.766 L 160.599 22.532 C 160.632 10.161 150.577 0.109 138.202 0.109 Z " fill="rgb(0,0,0)"/><path d=" M 164.402 21.179 C 159.794 28.976 152.22 35.065 142.778 37.61 C 138.976 38.641 135.141 38.995 131.435 38.77 C 131.177 38.77 130.951 38.738 130.693 38.705 C 125.408 38.287 120.349 36.708 115.837 34.195 C 115.031 33.744 114.774 32.713 115.225 31.94 C 117.803 27.59 121.283 23.789 125.473 20.825 C 125.666 20.696 125.859 20.535 126.085 20.406 C 129.308 18.247 132.917 16.572 136.881 15.509 C 140.587 14.51 144.325 14.156 147.967 14.317 C 148.386 14.349 148.804 14.381 149.223 14.413 C 154.412 14.864 159.375 16.411 163.822 18.924 C 164.595 19.343 164.853 20.374 164.402 21.179 Z " fill="rgb(0,0,0)"/><path d=" M 137.203 11.417 L 135.85 6.262 C 135.624 5.425 134.883 4.845 134.013 4.845 C 133.852 4.845 133.69 4.877 133.529 4.909 C 133.046 5.038 132.627 5.36 132.369 5.779 C 132.111 6.23 132.047 6.713 132.176 7.197 L 133.529 12.352 C 133.755 13.189 134.496 13.737 135.366 13.737 C 135.527 13.737 135.688 13.705 135.85 13.672 C 136.333 13.544 136.752 13.221 137.01 12.803 C 137.268 12.384 137.332 11.9 137.203 11.417 Z  M 135.366 13.093 C 134.818 13.093 134.335 12.738 134.206 12.19 L 132.853 7.036 C 132.691 6.391 133.078 5.747 133.69 5.554 C 133.787 5.521 133.916 5.521 134.013 5.521 C 134.561 5.521 135.044 5.876 135.173 6.423 L 136.526 11.578 C 136.687 12.223 136.333 12.867 135.688 13.06 C 135.592 13.06 135.495 13.093 135.366 13.093 Z  M 131.112 13.447 L 128.051 9.259 C 127.696 8.775 127.116 8.485 126.536 8.485 C 126.15 8.485 125.763 8.614 125.408 8.84 C 124.57 9.452 124.377 10.644 124.989 11.482 L 128.051 15.67 C 128.405 16.153 128.985 16.443 129.566 16.443 C 129.952 16.443 130.339 16.314 130.693 16.089 C 131.564 15.444 131.725 14.285 131.112 13.447 Z  M 130.307 15.509 C 130.081 15.67 129.856 15.734 129.598 15.734 C 129.243 15.734 128.857 15.573 128.631 15.251 L 125.569 11.063 C 125.183 10.515 125.312 9.774 125.827 9.387 C 126.053 9.226 126.278 9.162 126.536 9.162 C 126.923 9.162 127.277 9.323 127.503 9.645 L 130.565 13.834 C 130.951 14.381 130.855 15.122 130.307 15.509 Z  M 125.86 17.603 L 122.347 14.832 C 122.025 14.575 121.606 14.446 121.187 14.446 C 120.607 14.446 120.059 14.703 119.704 15.154 C 119.06 15.96 119.189 17.152 120.027 17.796 L 123.539 20.567 C 123.861 20.825 124.28 20.954 124.699 20.954 C 124.957 20.954 125.215 20.889 125.441 20.793 C 125.634 20.664 125.827 20.503 126.053 20.374 C 126.117 20.309 126.15 20.277 126.182 20.213 C 126.826 19.439 126.697 18.247 125.86 17.603 Z  M 124.699 20.277 C 124.442 20.277 124.184 20.18 123.958 20.019 L 120.446 17.249 C 119.93 16.83 119.833 16.089 120.252 15.573 C 120.478 15.283 120.832 15.122 121.187 15.122 C 121.445 15.122 121.702 15.219 121.928 15.38 L 125.441 18.151 C 125.956 18.57 126.053 19.311 125.634 19.826 C 125.408 20.116 125.054 20.277 124.699 20.277 Z  M 142.778 4.523 C 142.714 4.523 142.617 4.523 142.553 4.523 C 141.586 4.523 140.78 5.231 140.684 6.198 L 140.103 11.127 C 139.975 12.158 140.716 13.093 141.747 13.221 C 141.811 13.221 141.908 13.221 141.973 13.221 C 142.939 13.221 143.745 12.513 143.842 11.546 L 144.422 6.617 C 144.551 5.586 143.809 4.651 142.778 4.523 Z  M 142.005 12.545 C 141.973 12.545 141.908 12.545 141.876 12.545 C 141.199 12.48 140.748 11.868 140.812 11.224 L 141.392 6.295 C 141.457 5.682 141.973 5.231 142.585 5.231 C 142.649 5.231 142.682 5.231 142.746 5.231 C 143.391 5.296 143.874 5.908 143.809 6.552 L 143.197 11.482 C 143.1 12.094 142.585 12.545 142.005 12.545 Z  M 150.738 7.583 C 150.513 7.487 150.255 7.422 150.029 7.422 C 149.256 7.422 148.579 7.873 148.289 8.582 L 146.935 11.836 C 146.549 12.803 147 13.898 147.934 14.285 C 147.934 14.285 147.934 14.285 147.967 14.285 C 148.192 14.381 148.45 14.446 148.676 14.446 C 148.837 14.446 149.03 14.413 149.191 14.381 C 149.739 14.22 150.19 13.834 150.416 13.286 L 151.769 10.032 C 152.156 9.065 151.705 7.97 150.738 7.583 Z  M 151.125 9.774 L 149.771 13.028 C 149.578 13.479 149.127 13.769 148.676 13.769 C 148.514 13.769 148.353 13.737 148.224 13.672 C 147.612 13.415 147.322 12.706 147.58 12.094 L 148.933 8.84 C 149.127 8.389 149.578 8.099 150.061 8.099 C 150.222 8.099 150.384 8.131 150.513 8.195 C 151.093 8.453 151.383 9.162 151.125 9.774 Z  M 147.548 45.407 L 146.065 40.284 C 145.84 39.479 145.099 38.931 144.261 38.931 C 144.099 38.931 143.906 38.963 143.745 38.995 C 143.262 39.124 142.843 39.446 142.617 39.898 C 142.392 40.349 142.327 40.832 142.456 41.315 L 143.938 46.438 C 144.164 47.243 144.905 47.791 145.743 47.791 C 145.904 47.791 146.098 47.759 146.259 47.726 C 146.742 47.598 147.161 47.275 147.387 46.824 C 147.612 46.373 147.709 45.89 147.548 45.407 Z  M 145.743 47.146 C 145.227 47.146 144.744 46.792 144.583 46.277 L 143.1 41.154 C 142.907 40.51 143.294 39.865 143.906 39.672 C 144.003 39.64 144.132 39.608 144.228 39.608 C 144.744 39.608 145.227 39.962 145.389 40.477 L 146.871 45.6 C 147.064 46.244 146.678 46.921 146.065 47.082 C 145.969 47.114 145.872 47.146 145.743 47.146 Z  M 154.637 40.993 L 151.479 36.869 C 151.125 36.386 150.577 36.128 149.997 36.128 C 149.578 36.128 149.191 36.257 148.837 36.515 C 147.999 37.159 147.87 38.319 148.482 39.157 L 151.64 43.28 C 151.995 43.764 152.543 44.021 153.123 44.021 C 153.542 44.021 153.928 43.893 154.283 43.635 C 154.67 43.313 154.927 42.894 154.992 42.378 C 155.089 41.895 154.96 41.412 154.637 40.993 Z  M 153.864 43.119 C 153.638 43.28 153.381 43.377 153.123 43.377 C 152.768 43.377 152.414 43.216 152.156 42.894 L 148.998 38.77 C 148.579 38.254 148.708 37.481 149.223 37.095 C 149.449 36.934 149.707 36.837 149.965 36.837 C 150.319 36.837 150.674 36.998 150.931 37.32 L 154.09 41.444 C 154.509 41.959 154.412 42.7 153.864 43.119 Z  M 160.213 35.967 C 160.18 35.452 159.955 35 159.6 34.678 L 157.087 32.391 C 156.732 32.069 156.281 31.908 155.83 31.908 C 155.282 31.908 154.799 32.133 154.444 32.52 C 154.122 32.906 153.928 33.357 153.961 33.873 C 153.993 34.388 154.219 34.839 154.573 35.194 L 157.087 37.481 C 157.441 37.803 157.892 37.964 158.343 37.964 C 158.859 37.964 159.375 37.739 159.729 37.352 C 160.084 36.966 160.245 36.482 160.213 35.967 Z  M 158.343 37.256 C 158.053 37.256 157.763 37.159 157.538 36.934 L 155.024 34.646 C 154.541 34.195 154.509 33.422 154.96 32.939 C 155.185 32.681 155.508 32.552 155.862 32.552 C 156.152 32.552 156.442 32.649 156.668 32.874 L 159.181 35.162 C 159.665 35.613 159.697 36.354 159.246 36.869 C 158.988 37.127 158.666 37.256 158.343 37.256 Z  M 139.104 40.316 C 138.782 39.93 138.331 39.704 137.815 39.64 C 137.751 39.64 137.686 39.64 137.622 39.64 C 136.655 39.64 135.85 40.381 135.753 41.347 L 135.27 46.309 C 135.237 46.792 135.366 47.308 135.688 47.694 C 136.011 48.081 136.462 48.306 136.978 48.371 C 137.042 48.371 137.106 48.371 137.171 48.371 C 138.138 48.371 138.943 47.63 139.04 46.663 L 139.491 41.702 C 139.588 41.186 139.427 40.703 139.104 40.316 Z  M 137.203 47.662 C 137.171 47.662 137.139 47.662 137.074 47.662 C 136.43 47.598 135.946 47.018 135.979 46.341 L 136.43 41.412 C 136.494 40.8 137.01 40.316 137.622 40.316 C 137.654 40.316 137.686 40.316 137.751 40.316 C 138.395 40.381 138.911 40.961 138.847 41.637 L 138.395 46.599 C 138.331 47.211 137.815 47.662 137.203 47.662 Z  M 132.627 39.833 C 132.434 39.382 132.047 39.028 131.596 38.834 C 131.531 38.802 131.467 38.802 131.402 38.77 C 131.145 38.77 130.919 38.738 130.661 38.705 C 129.984 38.802 129.404 39.253 129.147 39.898 L 127.922 43.055 C 127.729 43.538 127.761 44.021 127.954 44.505 C 128.148 44.988 128.534 45.31 128.985 45.503 C 129.211 45.6 129.437 45.632 129.662 45.632 C 130.436 45.632 131.145 45.149 131.435 44.44 L 132.659 41.283 C 132.853 40.8 132.82 40.284 132.627 39.833 Z  M 129.662 44.956 C 129.501 44.956 129.372 44.923 129.243 44.859 C 128.631 44.634 128.309 43.925 128.566 43.313 L 129.791 40.155 C 129.984 39.672 130.436 39.382 130.919 39.382 C 131.08 39.382 131.209 39.414 131.37 39.479 C 131.982 39.704 132.305 40.413 132.047 41.025 L 130.822 44.182 C 130.597 44.666 130.146 44.956 129.662 44.956 Z " fill="rgb(0,0,0)"/><path d=" M 138.685 26.656 C 140.892 26.656 142.682 24.868 142.682 22.661 C 142.682 20.455 140.892 18.666 138.685 18.666 C 136.479 18.666 134.689 20.455 134.689 22.661 C 134.689 24.868 136.479 26.656 138.685 26.656 Z " fill="rgb(255,255,255)"/><path d=" M 151.06 19.439 C 151.608 25.561 147.677 31.392 141.554 33.035 C 135.398 34.678 129.114 31.585 126.504 26.012 C 123.958 27.88 121.799 30.103 120.059 32.681 C 126.536 35.677 134.399 36.966 142.037 34.904 C 149.707 32.842 155.83 27.816 159.955 21.985 C 157.183 20.664 154.186 19.826 151.06 19.439 Z " fill="rgb(255,255,255)"/><path d=" M 135.688 13.06 C 135.592 13.093 135.463 13.093 135.366 13.093 C 134.818 13.093 134.335 12.738 134.206 12.19 L 132.853 7.036 C 132.691 6.391 133.078 5.747 133.69 5.554 C 133.787 5.521 133.916 5.521 134.013 5.521 C 134.561 5.521 135.044 5.876 135.173 6.423 L 136.526 11.578 C 136.72 12.223 136.333 12.867 135.688 13.06 Z  M 130.564 13.834 L 127.503 9.645 C 127.277 9.323 126.891 9.162 126.536 9.162 C 126.278 9.162 126.053 9.226 125.827 9.387 C 125.279 9.774 125.183 10.515 125.569 11.063 L 128.631 15.251 C 128.856 15.573 129.243 15.734 129.598 15.734 C 129.855 15.734 130.081 15.67 130.307 15.509 C 130.855 15.122 130.951 14.381 130.564 13.834 Z  M 125.441 18.151 L 121.928 15.38 C 121.702 15.219 121.444 15.122 121.187 15.122 C 120.832 15.122 120.478 15.283 120.252 15.573 C 119.833 16.089 119.93 16.862 120.445 17.249 L 123.958 20.019 C 124.184 20.18 124.442 20.277 124.699 20.277 C 125.054 20.277 125.408 20.116 125.634 19.826 C 126.053 19.311 125.956 18.57 125.441 18.151 Z  M 142.714 5.231 C 142.649 5.231 142.617 5.231 142.553 5.231 C 141.94 5.231 141.425 5.682 141.36 6.295 L 140.78 11.224 C 140.716 11.868 141.167 12.48 141.844 12.545 C 141.876 12.545 141.94 12.545 141.973 12.545 C 142.585 12.545 143.1 12.094 143.165 11.482 L 143.745 6.552 C 143.842 5.876 143.358 5.296 142.714 5.231 Z  M 150.48 8.195 C 150.319 8.131 150.158 8.099 150.029 8.099 C 149.546 8.099 149.095 8.389 148.901 8.84 L 147.548 12.094 C 147.29 12.706 147.58 13.415 148.192 13.672 C 148.353 13.737 148.514 13.769 148.643 13.769 C 149.127 13.769 149.546 13.479 149.739 13.028 L 151.093 9.774 C 151.383 9.162 151.093 8.453 150.48 8.195 Z  M 146.903 45.6 L 145.421 40.477 C 145.26 39.962 144.776 39.608 144.261 39.608 C 144.164 39.608 144.035 39.608 143.938 39.672 C 143.294 39.865 142.939 40.51 143.133 41.154 L 144.615 46.277 C 144.776 46.792 145.26 47.146 145.775 47.146 C 145.872 47.146 146.001 47.146 146.097 47.114 C 146.71 46.921 147.096 46.244 146.903 45.6 Z  M 154.09 41.412 L 150.931 37.288 C 150.706 36.966 150.351 36.805 149.965 36.805 C 149.707 36.805 149.449 36.869 149.223 37.062 C 148.708 37.449 148.611 38.222 148.998 38.738 L 152.156 42.862 C 152.382 43.184 152.736 43.345 153.123 43.345 C 153.381 43.345 153.638 43.28 153.864 43.087 C 154.412 42.7 154.508 41.959 154.09 41.412 Z  M 159.149 35.162 L 156.635 32.874 C 156.41 32.649 156.12 32.552 155.83 32.552 C 155.508 32.552 155.185 32.681 154.927 32.939 C 154.476 33.422 154.508 34.195 154.992 34.646 L 157.506 36.934 C 157.731 37.127 158.021 37.256 158.311 37.256 C 158.633 37.256 158.956 37.127 159.214 36.869 C 159.665 36.386 159.632 35.613 159.149 35.162 Z  M 137.783 40.316 C 137.751 40.316 137.719 40.316 137.654 40.316 C 137.042 40.316 136.526 40.767 136.462 41.412 L 136.011 46.341 C 135.946 46.985 136.43 47.598 137.106 47.662 C 137.139 47.662 137.171 47.662 137.235 47.662 C 137.848 47.662 138.363 47.179 138.428 46.567 L 138.879 41.605 C 138.911 40.993 138.428 40.381 137.783 40.316 Z  M 131.338 39.446 C 131.209 39.382 131.048 39.35 130.887 39.35 C 130.403 39.35 129.952 39.64 129.759 40.123 L 128.534 43.28 C 128.276 43.893 128.599 44.601 129.211 44.827 C 129.372 44.891 129.501 44.923 129.63 44.923 C 130.113 44.923 130.564 44.634 130.758 44.15 L 131.982 40.993 C 132.272 40.381 131.95 39.704 131.338 39.446 Z " fill="rgb(255,255,255)"/></g></svg>